solid Guide_P1_R_22deg
facet normal 0.0 0.0 -1.0
  outer loop
    vertex 10.0 139.49747468305839 0.0
    vertex 0.0 35.35533905932742 0.0
    vertex 0.0 139.49747468305839 0.0
  endloop
endfacet
facet normal 0.0 0.0 -1.0
  outer loop
    vertex 0.0 35.35533905932742 0.0
    vertex 10.0 139.49747468305839 0.0
    vertex 10.0 39.49747468305838 0.0
  endloop
endfacet
facet normal 0.0 0.0 -1.0
  outer loop
    vertex 0.0 35.35533905932742 0.0
    vertex 10.0 39.49747468305838 0.0
    vertex 17.677669529663675 17.6776695296637 0.0
  endloop
endfacet
facet normal 0.0 0.0 -1.0
  outer loop
    vertex 17.677669529663675 17.6776695296637 0.0
    vertex 10.0 39.49747468305838 0.0
    vertex 42.42640687119287 7.071067811865538 0.0
  endloop
endfacet
facet normal 0.0 0.0 -1.0
  outer loop
    vertex 17.677669529663675 17.6776695296637 0.0
    vertex 42.42640687119287 7.071067811865538 0.0
    vertex 35.35533905932734 0.0 0.0
  endloop
endfacet
facet normal 0.7071067811865481 -0.707106781186547 0.0
  outer loop
    vertex 35.35533905932734 0.0 0.0
    vertex 38.5373195746668 3.1819805153394727 5.0
    vertex 35.35533905932734 0.0 10.0
  endloop
endfacet
facet normal 0.7071067811865481 -0.707106781186547 0.0
  outer loop
    vertex 38.5373195746668 3.1819805153394727 5.0
    vertex 35.35533905932734 0.0 0.0
    vertex 42.42640687119287 7.071067811865538 0.0
  endloop
endfacet
facet normal 0.7071067811865481 -0.707106781186547 0.0
  outer loop
    vertex 38.5373195746668 3.1819805153394727 5.0
    vertex 42.42640687119287 7.071067811865538 0.0
    vertex 42.42640687119287 7.071067811865538 5.0
  endloop
endfacet
facet normal 0.7071067811865481 -0.707106781186547 0.0
  outer loop
    vertex 38.5373195746668 3.1819805153394727 10.0
    vertex 35.35533905932734 0.0 10.0
    vertex 38.5373195746668 3.1819805153394727 5.0
  endloop
endfacet
facet normal 0.7071067811865468 0.7071067811865483 0.0
  outer loop
    vertex 28.28427124746186 13.43502884254439 10.0
    vertex 38.5373195746668 3.1819805153394727 5.0
    vertex 28.28427124746186 13.43502884254439 5.0
  endloop
endfacet
facet normal 0.7071067811865468 0.7071067811865483 0.0
  outer loop
    vertex 38.5373195746668 3.1819805153394727 5.0
    vertex 28.28427124746186 13.43502884254439 10.0
    vertex 38.5373195746668 3.1819805153394727 10.0
  endloop
endfacet
facet normal 0.0 0.0 1.0
  outer loop
    vertex 35.35533905932734 0.0 10.0
    vertex 28.28427124746186 13.43502884254439 10.0
    vertex 25.102290732122412 10.253048327204944 10.0
  endloop
endfacet
facet normal 0.0 0.0 1.0
  outer loop
    vertex 28.28427124746186 13.43502884254439 10.0
    vertex 35.35533905932734 0.0 10.0
    vertex 38.5373195746668 3.1819805153394727 10.0
  endloop
endfacet
facet normal 0.7071067811865467 -0.7071067811865483 0.0
  outer loop
    vertex 28.28427124746191 21.21320343559648 10.0
    vertex 25.102290732122405 18.031222920256983 5.0
    vertex 28.28427124746191 21.21320343559648 5.0
  endloop
endfacet
facet normal 0.7071067811865467 -0.7071067811865483 0.0
  outer loop
    vertex 25.102290732122405 18.031222920256983 5.0
    vertex 28.28427124746191 21.21320343559648 10.0
    vertex 25.102290732122405 18.031222920256983 10.0
  endloop
endfacet
facet normal -0.7071067811865478 0.7071067811865472 0.0
  outer loop
    vertex 28.28427124746186 13.43502884254439 10.0
    vertex 25.102290732122412 10.253048327204944 5.0
    vertex 25.102290732122412 10.253048327204944 10.0
  endloop
endfacet
facet normal -0.7071067811865478 0.7071067811865472 0.0
  outer loop
    vertex 25.102290732122412 10.253048327204944 5.0
    vertex 28.28427124746186 13.43502884254439 10.0
    vertex 28.28427124746186 13.43502884254439 5.0
  endloop
endfacet
facet normal 0.7071067811865498 -0.7071067811865454 0.0
  outer loop
    vertex 21.566756826189675 21.566756826189707 5.0
    vertex 17.677669529663675 17.67766952966369 10.0
    vertex 17.677669529663675 17.67766952966369 5.0
  endloop
endfacet
facet normal 0.7071067811865498 -0.7071067811865454 0.0
  outer loop
    vertex 17.677669529663675 17.67766952966369 10.0
    vertex 21.566756826189675 21.566756826189707 5.0
    vertex 21.566756826189675 21.566756826189707 10.0
  endloop
endfacet
facet normal -0.7071067811865467 -0.7071067811865483 0.0
  outer loop
    vertex 25.102290732122405 18.031222920256983 10.0
    vertex 21.566756826189675 21.566756826189707 5.0
    vertex 25.102290732122405 18.031222920256983 5.0
  endloop
endfacet
facet normal -0.7071067811865467 -0.7071067811865483 0.0
  outer loop
    vertex 21.566756826189675 21.566756826189707 5.0
    vertex 25.102290732122405 18.031222920256983 10.0
    vertex 21.566756826189675 21.566756826189707 10.0
  endloop
endfacet
facet normal 0.0 0.0 1.0
  outer loop
    vertex 25.102290732122412 10.253048327204944 5.0
    vertex 21.566756826189675 21.566756826189707 5.0
    vertex 17.677669529663675 17.67766952966369 5.0
  endloop
endfacet
facet normal 0.0 0.0 1.0
  outer loop
    vertex 21.566756826189675 21.566756826189707 5.0
    vertex 25.102290732122412 10.253048327204944 5.0
    vertex 25.102290732122405 18.031222920256983 5.0
  endloop
endfacet
facet normal 0.0 0.0 1.0
  outer loop
    vertex 25.102290732122405 18.031222920256983 5.0
    vertex 25.102290732122412 10.253048327204944 5.0
    vertex 28.28427124746191 21.21320343559648 5.0
  endloop
endfacet
facet normal 0.0 0.0 1.0
  outer loop
    vertex 28.28427124746191 21.21320343559648 5.0
    vertex 25.102290732122412 10.253048327204944 5.0
    vertex 28.28427124746186 13.43502884254439 5.0
  endloop
endfacet
facet normal 0.0 0.0 1.0
  outer loop
    vertex 28.28427124746191 21.21320343559648 5.0
    vertex 28.28427124746186 13.43502884254439 5.0
    vertex 38.5373195746668 3.1819805153394727 5.0
  endloop
endfacet
facet normal 0.0 0.0 1.0
  outer loop
    vertex 28.28427124746191 21.21320343559648 5.0
    vertex 38.5373195746668 3.1819805153394727 5.0
    vertex 42.42640687119287 7.071067811865538 5.0
  endloop
endfacet
facet normal -0.0 -0.0 1.0
  outer loop
    vertex 17.677669529663675 17.67766952966369 10.0
    vertex 10.000000000000002 39.49747468305838 10.0
    vertex 6.0 29.355339059327406 10.0
  endloop
endfacet
facet normal -0.0 -0.0 1.0
  outer loop
    vertex 10.000000000000002 39.49747468305838 10.0
    vertex 17.677669529663675 17.67766952966369 10.0
    vertex 21.566756826189675 21.566756826189707 10.0
  endloop
endfacet
facet normal -0.0 -0.0 1.0
  outer loop
    vertex 10.000000000000002 39.49747468305838 10.0
    vertex 21.566756826189675 21.566756826189707 10.0
    vertex 28.28427124746191 21.21320343559648 10.0
  endloop
endfacet
facet normal -0.0 -0.0 1.0
  outer loop
    vertex 28.28427124746191 21.21320343559648 10.0
    vertex 21.566756826189675 21.566756826189707 10.0
    vertex 25.102290732122405 18.031222920256983 10.0
  endloop
endfacet
facet normal -0.0 -0.0 1.0
  outer loop
    vertex 6.0 29.355339059327406 10.0
    vertex 10.000000000000002 139.49747468305839 10.0
    vertex 5.999999999999999 139.49747468305839 10.0
  endloop
endfacet
facet normal -0.0 -0.0 1.0
  outer loop
    vertex 10.000000000000002 139.49747468305839 10.0
    vertex 6.0 29.355339059327406 10.0
    vertex 10.000000000000002 39.49747468305838 10.0
  endloop
endfacet
facet normal -0.7071067811865482 -0.7071067811865468 -2.595585090353416e-16
  outer loop
    vertex 6.0 29.355339059327406 10.0
    vertex 17.677669529663675 17.67766952966369 5.0
    vertex 17.677669529663675 17.67766952966369 10.0
  endloop
endfacet
facet normal -0.7071067811865482 -0.7071067811865468 -2.595585090353416e-16
  outer loop
    vertex 17.677669529663675 17.67766952966369 5.0
    vertex 6.0 29.355339059327406 10.0
    vertex 17.677669529663675 17.6776695296637 0.0
  endloop
endfacet
facet normal -0.7071067811865482 -0.7071067811865468 -2.595585090353416e-16
  outer loop
    vertex 17.677669529663675 17.6776695296637 0.0
    vertex 6.0 29.355339059327406 10.0
    vertex 0.0 35.35533905932742 0.0
  endloop
endfacet
facet normal -0.7071067811865482 -0.7071067811865468 -2.595585090353416e-16
  outer loop
    vertex 25.102290732122412 10.253048327204944 10.0
    vertex 35.35533905932734 0.0 0.0
    vertex 35.35533905932734 0.0 10.0
  endloop
endfacet
facet normal -0.7071067811865482 -0.7071067811865468 -2.595585090353416e-16
  outer loop
    vertex 35.35533905932734 0.0 0.0
    vertex 25.102290732122412 10.253048327204944 10.0
    vertex 25.102290732122412 10.253048327204944 5.0
  endloop
endfacet
facet normal -0.7071067811865482 -0.7071067811865468 -2.595585090353416e-16
  outer loop
    vertex 35.35533905932734 0.0 0.0
    vertex 25.102290732122412 10.253048327204944 5.0
    vertex 17.677669529663675 17.6776695296637 0.0
  endloop
endfacet
facet normal -0.7071067811865482 -0.7071067811865468 -2.595585090353416e-16
  outer loop
    vertex 17.677669529663675 17.6776695296637 0.0
    vertex 25.102290732122412 10.253048327204944 5.0
    vertex 17.677669529663675 17.67766952966369 5.0
  endloop
endfacet
facet normal 1.0 -0.0 -1.409983241273949e-16
  outer loop
    vertex 10.0 139.49747468305839 0.0
    vertex 10.000000000000002 39.49747468305838 10.0
    vertex 10.0 39.49747468305838 0.0
  endloop
endfacet
facet normal 1.0 -0.0 -1.409983241273949e-16
  outer loop
    vertex 10.000000000000002 39.49747468305838 10.0
    vertex 10.0 139.49747468305839 0.0
    vertex 10.000000000000002 139.49747468305839 10.0
  endloop
endfacet
facet normal 0.7071067811865472 0.7071067811865479 1.622139816039174e-16
  outer loop
    vertex 10.000000000000002 39.49747468305838 10.0
    vertex 42.42640687119287 7.071067811865538 0.0
    vertex 10.0 39.49747468305838 0.0
  endloop
endfacet
facet normal 0.7071067811865472 0.7071067811865479 1.622139816039174e-16
  outer loop
    vertex 42.42640687119287 7.071067811865538 0.0
    vertex 10.000000000000002 39.49747468305838 10.0
    vertex 28.28427124746191 21.21320343559648 5.0
  endloop
endfacet
facet normal 0.7071067811865472 0.7071067811865479 1.622139816039174e-16
  outer loop
    vertex 28.28427124746191 21.21320343559648 5.0
    vertex 10.000000000000002 39.49747468305838 10.0
    vertex 28.28427124746191 21.21320343559648 10.0
  endloop
endfacet
facet normal 0.7071067811865472 0.7071067811865479 1.622139816039174e-16
  outer loop
    vertex 42.42640687119287 7.071067811865538 5.0
    vertex 42.42640687119287 7.071067811865538 0.0
    vertex 28.28427124746191 21.21320343559648 5.0
  endloop
endfacet
facet normal -0.0 1.0 -0.0
  outer loop
    vertex 5.999999999999999 139.49747468305839 10.0
    vertex 10.0 139.49747468305839 0.0
    vertex 0.0 139.49747468305839 0.0
  endloop
endfacet
facet normal -0.0 1.0 -0.0
  outer loop
    vertex 10.0 139.49747468305839 0.0
    vertex 5.999999999999999 139.49747468305839 10.0
    vertex 10.000000000000002 139.49747468305839 10.0
  endloop
endfacet
facet normal -0.8574929257125443 -4.850396278393791e-18 0.5144957554275267
  outer loop
    vertex 5.999999999999999 139.49747468305839 10.0
    vertex 0.0 35.35533905932742 0.0
    vertex 6.0 29.355339059327406 10.0
  endloop
endfacet
facet normal -0.8574929257125443 -4.850396278393791e-18 0.5144957554275267
  outer loop
    vertex 0.0 35.35533905932742 0.0
    vertex 5.999999999999999 139.49747468305839 10.0
    vertex 0.0 139.49747468305839 0.0
  endloop
endfacet
endsolid Guide_P1_R_22deg
