solid Guide_P1_L_45deg
facet normal 0.0 0.0 -1.0
  outer loop
    vertex 35.35533905932734 139.49747468305839 0.0
    vertex 10.0 100.0 0.0
    vertex 10.0 114.14213562373098 0.0
  endloop
endfacet
facet normal 0.0 0.0 -1.0
  outer loop
    vertex 10.0 100.0 0.0
    vertex 35.35533905932734 139.49747468305839 0.0
    vertex 42.42640687119287 132.42640687119282 0.0
  endloop
endfacet
facet normal -0.0 -0.0 1.0
  outer loop
    vertex 10.0 100.0 10.0
    vertex 17.677669529663675 121.81980515339468 10.0
    vertex 9.999999999999998 114.14213562373098 10.0
  endloop
endfacet
facet normal -0.0 -0.0 1.0
  outer loop
    vertex 17.677669529663675 121.81980515339468 10.0
    vertex 10.0 100.0 10.0
    vertex 21.566756826189675 117.93071785686867 10.0
  endloop
endfacet
facet normal -0.0 -0.0 1.0
  outer loop
    vertex 21.566756826189675 117.93071785686867 10.0
    vertex 10.0 100.0 10.0
    vertex 28.28427124746191 118.2842712474619 10.0
  endloop
endfacet
facet normal -0.0 -0.0 1.0
  outer loop
    vertex 21.566756826189675 117.93071785686867 10.0
    vertex 28.28427124746191 118.2842712474619 10.0
    vertex 25.102290732122405 121.46625176280139 10.0
  endloop
endfacet
facet normal 0.0 0.0 -1.0
  outer loop
    vertex 10.0 114.14213562373098 0.0
    vertex 0.0 0.0 0.0
    vertex 0.0 104.14213562373095 0.0
  endloop
endfacet
facet normal 0.0 0.0 -1.0
  outer loop
    vertex 0.0 0.0 0.0
    vertex 10.0 114.14213562373098 0.0
    vertex 10.0 0.0 0.0
  endloop
endfacet
facet normal 0.0 0.0 -1.0
  outer loop
    vertex 10.0 0.0 0.0
    vertex 10.0 114.14213562373098 0.0
    vertex 10.0 100.0 0.0
  endloop
endfacet
facet normal -0.7071067811865483 0.7071067811865468 -1.0210257449282477e-16
  outer loop
    vertex 9.999999999999998 114.14213562373098 10.0
    vertex 0.0 104.14213562373095 0.0
    vertex -7.20092493185137e-15 104.14213562373095 0.10000000000000002
  endloop
endfacet
facet normal -0.7071067811865483 0.7071067811865468 -1.0210257449282477e-16
  outer loop
    vertex 0.0 104.14213562373095 0.0
    vertex 9.999999999999998 114.14213562373098 10.0
    vertex 10.0 114.14213562373098 0.0
  endloop
endfacet
facet normal 0.0 0.0 1.0
  outer loop
    vertex 21.566756826189675 117.93071785686867 5.0
    vertex 25.102290732122412 129.24442635585342 5.0
    vertex 17.677669529663675 121.81980515339468 5.0
  endloop
endfacet
facet normal 0.0 0.0 1.0
  outer loop
    vertex 25.102290732122412 129.24442635585342 5.0
    vertex 21.566756826189675 117.93071785686867 5.0
    vertex 25.102290732122405 121.46625176280139 5.0
  endloop
endfacet
facet normal 0.0 0.0 1.0
  outer loop
    vertex 25.102290732122412 129.24442635585342 5.0
    vertex 25.102290732122405 121.46625176280139 5.0
    vertex 28.28427124746191 118.2842712474619 5.0
  endloop
endfacet
facet normal 0.0 0.0 1.0
  outer loop
    vertex 25.102290732122412 129.24442635585342 5.0
    vertex 28.28427124746191 118.2842712474619 5.0
    vertex 28.28427124746186 126.06244584051399 5.0
  endloop
endfacet
facet normal 0.0 0.0 1.0
  outer loop
    vertex 28.28427124746186 126.06244584051399 5.0
    vertex 28.28427124746191 118.2842712474619 5.0
    vertex 38.5373195746668 136.3154941677189 5.0
  endloop
endfacet
facet normal 0.0 0.0 1.0
  outer loop
    vertex 38.5373195746668 136.3154941677189 5.0
    vertex 28.28427124746191 118.2842712474619 5.0
    vertex 42.42640687119287 132.42640687119282 5.0
  endloop
endfacet
facet normal -0.7035445979201049 -5.196603718354648e-18 0.7106511090102076
  outer loop
    vertex 10.0 0.0 10.0
    vertex -7.20092493185137e-15 104.14213562373095 0.10000000000000002
    vertex -7.20092493185137e-15 0.0 0.10000000000000002
  endloop
endfacet
facet normal -0.7035445979201049 -5.196603718354648e-18 0.7106511090102076
  outer loop
    vertex -7.20092493185137e-15 104.14213562373095 0.10000000000000002
    vertex 10.0 0.0 10.0
    vertex 9.999999999999998 114.14213562373098 10.0
  endloop
endfacet
facet normal -0.7035445979201049 -5.196603718354648e-18 0.7106511090102076
  outer loop
    vertex 9.999999999999998 114.14213562373098 10.0
    vertex 10.0 0.0 10.0
    vertex 10.0 100.0 10.0
  endloop
endfacet
facet normal 0.7071067811865472 -0.7071067811865479 0.0
  outer loop
    vertex 42.42640687119287 132.42640687119282 5.0
    vertex 10.0 100.0 0.0
    vertex 42.42640687119287 132.42640687119282 0.0
  endloop
endfacet
facet normal 0.7071067811865472 -0.7071067811865479 0.0
  outer loop
    vertex 10.0 100.0 0.0
    vertex 42.42640687119287 132.42640687119282 5.0
    vertex 28.28427124746191 118.2842712474619 5.0
  endloop
endfacet
facet normal 0.7071067811865472 -0.7071067811865479 0.0
  outer loop
    vertex 10.0 100.0 0.0
    vertex 28.28427124746191 118.2842712474619 5.0
    vertex 10.0 100.0 10.0
  endloop
endfacet
facet normal 0.7071067811865472 -0.7071067811865479 0.0
  outer loop
    vertex 10.0 100.0 10.0
    vertex 28.28427124746191 118.2842712474619 5.0
    vertex 28.28427124746191 118.2842712474619 10.0
  endloop
endfacet
facet normal -1.0 0.0 -7.20092493185137e-14
  outer loop
    vertex -7.20092493185137e-15 104.14213562373095 0.10000000000000002
    vertex 0.0 0.0 0.0
    vertex -7.20092493185137e-15 0.0 0.10000000000000002
  endloop
endfacet
facet normal -1.0 0.0 -7.20092493185137e-14
  outer loop
    vertex 0.0 0.0 0.0
    vertex -7.20092493185137e-15 104.14213562373095 0.10000000000000002
    vertex 0.0 104.14213562373095 0.0
  endloop
endfacet
facet normal 0.0 -1.0 0.0
  outer loop
    vertex 10.0 0.0 10.0
    vertex 0.0 0.0 0.0
    vertex 10.0 0.0 0.0
  endloop
endfacet
facet normal 0.0 -1.0 0.0
  outer loop
    vertex 0.0 0.0 0.0
    vertex 10.0 0.0 10.0
    vertex -7.20092493185137e-15 0.0 0.10000000000000002
  endloop
endfacet
facet normal 1.0 -0.0 -0.0
  outer loop
    vertex 10.0 100.0 0.0
    vertex 10.0 0.0 10.0
    vertex 10.0 0.0 0.0
  endloop
endfacet
facet normal 1.0 -0.0 -0.0
  outer loop
    vertex 10.0 0.0 10.0
    vertex 10.0 100.0 0.0
    vertex 10.0 100.0 10.0
  endloop
endfacet
facet normal 0.7071067811865481 0.707106781186547 0.0
  outer loop
    vertex 35.35533905932734 139.49747468305839 0.0
    vertex 42.42640687119287 132.42640687119282 5.0
    vertex 42.42640687119287 132.42640687119282 0.0
  endloop
endfacet
facet normal 0.7071067811865481 0.707106781186547 0.0
  outer loop
    vertex 42.42640687119287 132.42640687119282 5.0
    vertex 35.35533905932734 139.49747468305839 0.0
    vertex 38.5373195746668 136.3154941677189 5.0
  endloop
endfacet
facet normal 0.7071067811865481 0.707106781186547 0.0
  outer loop
    vertex 38.5373195746668 136.3154941677189 5.0
    vertex 35.35533905932734 139.49747468305839 0.0
    vertex 38.5373195746668 136.3154941677189 10.0
  endloop
endfacet
facet normal 0.7071067811865481 0.707106781186547 0.0
  outer loop
    vertex 38.5373195746668 136.3154941677189 10.0
    vertex 35.35533905932734 139.49747468305839 0.0
    vertex 35.35533905932734 139.49747468305839 10.0
  endloop
endfacet
facet normal 0.7071067811865467 0.7071067811865483 0.0
  outer loop
    vertex 25.102290732122405 121.46625176280139 10.0
    vertex 28.28427124746191 118.2842712474619 5.0
    vertex 25.102290732122405 121.46625176280139 5.0
  endloop
endfacet
facet normal 0.7071067811865467 0.7071067811865483 0.0
  outer loop
    vertex 28.28427124746191 118.2842712474619 5.0
    vertex 25.102290732122405 121.46625176280139 10.0
    vertex 28.28427124746191 118.2842712474619 10.0
  endloop
endfacet
facet normal 0.7071067811865468 -0.7071067811865483 0.0
  outer loop
    vertex 38.5373195746668 136.3154941677189 10.0
    vertex 28.28427124746186 126.06244584051399 5.0
    vertex 38.5373195746668 136.3154941677189 5.0
  endloop
endfacet
facet normal 0.7071067811865468 -0.7071067811865483 0.0
  outer loop
    vertex 28.28427124746186 126.06244584051399 5.0
    vertex 38.5373195746668 136.3154941677189 10.0
    vertex 28.28427124746186 126.06244584051399 10.0
  endloop
endfacet
facet normal -0.7071067811865478 -0.7071067811865472 -0.0
  outer loop
    vertex 25.102290732122412 129.24442635585342 10.0
    vertex 28.28427124746186 126.06244584051399 5.0
    vertex 28.28427124746186 126.06244584051399 10.0
  endloop
endfacet
facet normal -0.7071067811865478 -0.7071067811865472 -0.0
  outer loop
    vertex 28.28427124746186 126.06244584051399 5.0
    vertex 25.102290732122412 129.24442635585342 10.0
    vertex 25.102290732122412 129.24442635585342 5.0
  endloop
endfacet
facet normal -0.7071067811865467 0.7071067811865483 0.0
  outer loop
    vertex 21.566756826189675 117.93071785686867 10.0
    vertex 25.102290732122405 121.46625176280139 5.0
    vertex 21.566756826189675 117.93071785686867 5.0
  endloop
endfacet
facet normal -0.7071067811865467 0.7071067811865483 0.0
  outer loop
    vertex 25.102290732122405 121.46625176280139 5.0
    vertex 21.566756826189675 117.93071785686867 10.0
    vertex 25.102290732122405 121.46625176280139 10.0
  endloop
endfacet
facet normal -0.0 -0.0 1.0
  outer loop
    vertex 28.28427124746186 126.06244584051399 10.0
    vertex 35.35533905932734 139.49747468305839 10.0
    vertex 25.102290732122412 129.24442635585342 10.0
  endloop
endfacet
facet normal -0.0 -0.0 1.0
  outer loop
    vertex 35.35533905932734 139.49747468305839 10.0
    vertex 28.28427124746186 126.06244584051399 10.0
    vertex 38.5373195746668 136.3154941677189 10.0
  endloop
endfacet
facet normal 0.7071067811865498 0.7071067811865454 0.0
  outer loop
    vertex 17.677669529663675 121.81980515339468 5.0
    vertex 21.566756826189675 117.93071785686867 10.0
    vertex 21.566756826189675 117.93071785686867 5.0
  endloop
endfacet
facet normal 0.7071067811865498 0.7071067811865454 0.0
  outer loop
    vertex 21.566756826189675 117.93071785686867 10.0
    vertex 17.677669529663675 121.81980515339468 5.0
    vertex 17.677669529663675 121.81980515339468 10.0
  endloop
endfacet
facet normal -0.7071067811865482 0.7071067811865468 -6.331005316527659e-17
  outer loop
    vertex 35.35533905932734 139.49747468305839 10.0
    vertex 25.102290732122412 129.24442635585342 5.0
    vertex 25.102290732122412 129.24442635585342 10.0
  endloop
endfacet
facet normal -0.7071067811865482 0.7071067811865468 -6.331005316527659e-17
  outer loop
    vertex 17.677669529663675 121.81980515339468 10.0
    vertex 10.0 114.14213562373098 0.0
    vertex 9.999999999999998 114.14213562373098 10.0
  endloop
endfacet
facet normal -0.7071067811865482 0.7071067811865468 -6.331005316527659e-17
  outer loop
    vertex 10.0 114.14213562373098 0.0
    vertex 17.677669529663675 121.81980515339468 10.0
    vertex 17.677669529663675 121.81980515339468 5.0
  endloop
endfacet
facet normal -0.7071067811865482 0.7071067811865468 -6.331005316527659e-17
  outer loop
    vertex 10.0 114.14213562373098 0.0
    vertex 17.677669529663675 121.81980515339468 5.0
    vertex 35.35533905932734 139.49747468305839 0.0
  endloop
endfacet
facet normal -0.7071067811865482 0.7071067811865468 -6.331005316527659e-17
  outer loop
    vertex 35.35533905932734 139.49747468305839 0.0
    vertex 17.677669529663675 121.81980515339468 5.0
    vertex 25.102290732122412 129.24442635585342 5.0
  endloop
endfacet
facet normal -0.7071067811865482 0.7071067811865468 -6.331005316527659e-17
  outer loop
    vertex 35.35533905932734 139.49747468305839 0.0
    vertex 25.102290732122412 129.24442635585342 5.0
    vertex 35.35533905932734 139.49747468305839 10.0
  endloop
endfacet
facet normal 1.0 4.9850435563209734e-17 7.049916206369744e-17
  outer loop
    vertex 10.0 114.14213562373098 0.0
    vertex 10.0 100.0 10.0
    vertex 10.0 100.0 0.0
  endloop
endfacet
facet normal 1.0 4.9850435563209734e-17 7.049916206369744e-17
  outer loop
    vertex 10.0 100.0 10.0
    vertex 10.0 114.14213562373098 0.0
    vertex 9.999999999999998 114.14213562373098 10.0
  endloop
endfacet
endsolid Guide_P1_L_45deg
