solid FullRoof
facet normal 2.7293570364572724e-19 4.118241121557716e-18 -1.0
  outer loop
    vertex 0.0 178.0 0.0
    vertex 1.9999999999999998 176.0 0.0
    vertex 0.0 0.0 0.0
  endloop
endfacet
facet normal 2.7293570364572724e-19 4.118241121557716e-18 -1.0
  outer loop
    vertex 1.9999999999999998 176.0 0.0
    vertex 0.0 178.0 0.0
    vertex 178.0 178.0 0.0
  endloop
endfacet
facet normal 2.7293570364572724e-19 4.118241121557716e-18 -1.0
  outer loop
    vertex 1.9999999999999998 176.0 0.0
    vertex 178.0 178.0 0.0
    vertex 176.0 176.0 0.0
  endloop
endfacet
facet normal 2.7293570364572724e-19 4.118241121557716e-18 -1.0
  outer loop
    vertex 176.0 176.0 0.0
    vertex 178.0 178.0 0.0
    vertex 176.0 1.9999999999999998 0.0
  endloop
endfacet
facet normal 2.7293570364572724e-19 4.118241121557716e-18 -1.0
  outer loop
    vertex 176.0 1.9999999999999998 0.0
    vertex 104.25 7.049916206369744e-16 1.4099832412739487e-15
    vertex 104.25 2.000000000000002 -3.809367925691231e-15
  endloop
endfacet
facet normal 2.7293570364572724e-19 4.118241121557716e-18 -1.0
  outer loop
    vertex 104.25 7.049916206369744e-16 1.4099832412739487e-15
    vertex 176.0 1.9999999999999998 0.0
    vertex 178.0 0.0 0.0
  endloop
endfacet
facet normal 2.7293570364572724e-19 4.118241121557716e-18 -1.0
  outer loop
    vertex 178.0 0.0 0.0
    vertex 176.0 1.9999999999999998 0.0
    vertex 178.0 178.0 0.0
  endloop
endfacet
facet normal 2.7293570364572724e-19 4.118241121557716e-18 -1.0
  outer loop
    vertex 0.0 0.0 0.0
    vertex 1.9999999999999998 1.9999999999999998 0.0
    vertex 73.74999999999999 0.0 -7.049916206369744e-16
  endloop
endfacet
facet normal 2.7293570364572724e-19 4.118241121557716e-18 -1.0
  outer loop
    vertex 1.9999999999999998 1.9999999999999998 0.0
    vertex 0.0 0.0 0.0
    vertex 1.9999999999999998 176.0 0.0
  endloop
endfacet
facet normal 2.7293570364572724e-19 4.118241121557716e-18 -1.0
  outer loop
    vertex 73.74999999999999 0.0 -7.049916206369744e-16
    vertex 1.9999999999999998 1.9999999999999998 0.0
    vertex 73.75000000000001 2.0000000000000018 -2.8199664825478975e-15
  endloop
endfacet
facet normal 3.536078786806254e-18 -0.7662053040715517 0.6425958543381842
  outer loop
    vertex 178.0 0.0 0.0
    vertex 104.25 9.88582314230949 11.787455638897566
    vertex 104.25 7.049916206369744e-16 1.4099832412739487e-15
  endloop
endfacet
facet normal 3.536078786806254e-18 -0.7662053040715517 0.6425958543381842
  outer loop
    vertex 104.25 9.88582314230949 11.787455638897566
    vertex 178.0 0.0 0.0
    vertex 89.0 89.0 106.11999999999999
  endloop
endfacet
facet normal 3.536078786806254e-18 -0.7662053040715517 0.6425958543381842
  outer loop
    vertex 104.25 9.88582314230949 11.787455638897566
    vertex 89.0 89.0 106.11999999999999
    vertex 73.74999999999999 9.88582314230949 11.787455638897566
  endloop
endfacet
facet normal 3.536078786806254e-18 -0.7662053040715517 0.6425958543381842
  outer loop
    vertex 73.74999999999999 9.88582314230949 11.787455638897566
    vertex 0.0 0.0 0.0
    vertex 73.74999999999999 0.0 -7.049916206369744e-16
  endloop
endfacet
facet normal 3.536078786806254e-18 -0.7662053040715517 0.6425958543381842
  outer loop
    vertex 0.0 0.0 0.0
    vertex 73.74999999999999 9.88582314230949 11.787455638897566
    vertex 89.0 89.0 106.11999999999999
  endloop
endfacet
facet normal -0.7662053040715519 0.0 0.6425958543381841
  outer loop
    vertex 0.0 178.0 0.0
    vertex 0.0 0.0 0.0
    vertex 89.0 89.0 106.11999999999999
  endloop
endfacet
facet normal 0.7662053040715519 -0.0 0.6425958543381842
  outer loop
    vertex 178.0 178.0 0.0
    vertex 89.0 89.0 106.11999999999999
    vertex 178.0 0.0 0.0
  endloop
endfacet
facet normal -0.0 0.7662053040715519 0.6425958543381842
  outer loop
    vertex 89.0 89.0 106.11999999999999
    vertex 178.0 178.0 0.0
    vertex 0.0 178.0 0.0
  endloop
endfacet
facet normal 0.0 -0.7673748599710116 -0.6411987400833461
  outer loop
    vertex 89.0 89.0 104.12
    vertex 1.9999999999999998 176.0 0.0
    vertex 176.0 176.0 0.0
  endloop
endfacet
facet normal 0.7673748599710116 -0.0 -0.6411987400833461
  outer loop
    vertex 1.9999999999999998 176.0 0.0
    vertex 89.0 89.0 104.12
    vertex 1.9999999999999998 1.9999999999999998 0.0
  endloop
endfacet
facet normal -0.7673748599710116 0.0 -0.6411987400833461
  outer loop
    vertex 176.0 176.0 0.0
    vertex 176.0 1.9999999999999998 0.0
    vertex 89.0 89.0 104.12
  endloop
endfacet
facet normal -0.0 -0.0 1.0
  outer loop
    vertex 104.25 9.88582314230949 11.787455638897566
    vertex 73.75 11.849295433961666 11.787455638897566
    vertex 73.74999999999999 9.88582314230949 11.787455638897566
  endloop
endfacet
facet normal -0.0 -0.0 1.0
  outer loop
    vertex 73.75 11.849295433961666 11.787455638897566
    vertex 104.25 9.88582314230949 11.787455638897566
    vertex 104.25 11.849295433961666 11.787455638897566
  endloop
endfacet
facet normal 2.2498120694217446e-18 0.7673748599710116 -0.6411987400833461
  outer loop
    vertex 1.9999999999999998 1.9999999999999998 0.0
    vertex 73.75 11.849295433961666 11.787455638897566
    vertex 73.75000000000001 2.0000000000000018 -2.8199664825478975e-15
  endloop
endfacet
facet normal 2.2498120694217446e-18 0.7673748599710116 -0.6411987400833461
  outer loop
    vertex 73.75 11.849295433961666 11.787455638897566
    vertex 1.9999999999999998 1.9999999999999998 0.0
    vertex 89.0 89.0 104.12
  endloop
endfacet
facet normal 2.2498120694217446e-18 0.7673748599710116 -0.6411987400833461
  outer loop
    vertex 73.75 11.849295433961666 11.787455638897566
    vertex 89.0 89.0 104.12
    vertex 104.25 11.849295433961666 11.787455638897566
  endloop
endfacet
facet normal 2.2498120694217446e-18 0.7673748599710116 -0.6411987400833461
  outer loop
    vertex 104.25 11.849295433961666 11.787455638897566
    vertex 176.0 1.9999999999999998 0.0
    vertex 104.25 2.000000000000002 -3.809367925691231e-15
  endloop
endfacet
facet normal 2.2498120694217446e-18 0.7673748599710116 -0.6411987400833461
  outer loop
    vertex 176.0 1.9999999999999998 0.0
    vertex 104.25 11.849295433961666 11.787455638897566
    vertex 89.0 89.0 104.12
  endloop
endfacet
facet normal 1.0 -0.0 -0.0
  outer loop
    vertex 104.25 2.000000000000002 -3.809367925691231e-15
    vertex 104.25 9.88582314230949 11.787455638897566
    vertex 104.25 7.049916206369744e-16 1.4099832412739487e-15
  endloop
endfacet
facet normal 1.0 -0.0 -0.0
  outer loop
    vertex 104.25 9.88582314230949 11.787455638897566
    vertex 104.25 2.000000000000002 -3.809367925691231e-15
    vertex 104.25 11.849295433961666 11.787455638897566
  endloop
endfacet
facet normal -1.0 8.563367858510424e-15 -7.647067847077165e-15
  outer loop
    vertex 73.74999999999999 9.88582314230949 11.787455638897566
    vertex 73.75000000000001 2.0000000000000018 -2.8199664825478975e-15
    vertex 73.74999999999999 0.0 -7.049916206369744e-16
  endloop
endfacet
facet normal -1.0 8.563367858510424e-15 -7.647067847077165e-15
  outer loop
    vertex 73.75000000000001 2.0000000000000018 -2.8199664825478975e-15
    vertex 73.74999999999999 9.88582314230949 11.787455638897566
    vertex 73.75 11.849295433961666 11.787455638897566
  endloop
endfacet
endsolid FullRoof
