solid TopElement
facet normal 0.9914448613738104 0.13052619222005174 0.0
  outer loop
    vertex 28.97777478867205 7.764571353075622 -0.9999999999999999
    vertex 30.0 0.0 80.0
    vertex 30.0 0.0 -0.9999999999999999
  endloop
endfacet
facet normal 0.9914448613738104 0.13052619222005174 0.0
  outer loop
    vertex 30.0 0.0 80.0
    vertex 28.97777478867205 7.764571353075622 -0.9999999999999999
    vertex 28.97777478867205 7.764571353075622 80.0
  endloop
endfacet
facet normal 0.9914448613738105 -0.13052619222005205 0.0
  outer loop
    vertex 30.0 0.0 -0.9999999999999999
    vertex 28.977774788672043 -7.764571353075648 80.0
    vertex 28.977774788672043 -7.764571353075648 -0.9999999999999999
  endloop
endfacet
facet normal 0.9914448613738105 -0.13052619222005205 0.0
  outer loop
    vertex 28.977774788672043 -7.764571353075648 80.0
    vertex 30.0 0.0 -0.9999999999999999
    vertex 30.0 0.0 80.0
  endloop
endfacet
facet normal 0.9238795325112865 -0.3826834323650904 0.0
  outer loop
    vertex 28.977774788672043 -7.764571353075648 -0.9999999999999999
    vertex 25.980762113533153 -15.000000000000014 80.0
    vertex 25.980762113533153 -15.000000000000014 -0.9999999999999999
  endloop
endfacet
facet normal 0.9238795325112865 -0.3826834323650904 0.0
  outer loop
    vertex 25.980762113533153 -15.000000000000014 80.0
    vertex 28.977774788672043 -7.764571353075648 -0.9999999999999999
    vertex 28.977774788672043 -7.764571353075648 80.0
  endloop
endfacet
facet normal 0.7933533402912349 -0.608761429008721 0.0
  outer loop
    vertex 25.980762113533153 -15.000000000000014 -0.9999999999999999
    vertex 21.213203435596423 -21.21320343559643 80.0
    vertex 21.213203435596423 -21.21320343559643 -0.9999999999999999
  endloop
endfacet
facet normal 0.7933533402912349 -0.608761429008721 0.0
  outer loop
    vertex 21.213203435596423 -21.21320343559643 80.0
    vertex 25.980762113533153 -15.000000000000014 -0.9999999999999999
    vertex 25.980762113533153 -15.000000000000014 80.0
  endloop
endfacet
facet normal 0.6087614290087207 -0.7933533402912354 0.0
  outer loop
    vertex 21.213203435596423 -21.21320343559643 80.0
    vertex 14.99999999999998 -25.980762113533174 -0.9999999999999999
    vertex 21.213203435596423 -21.21320343559643 -0.9999999999999999
  endloop
endfacet
facet normal 0.6087614290087207 -0.7933533402912354 0.0
  outer loop
    vertex 14.99999999999998 -25.980762113533174 -0.9999999999999999
    vertex 21.213203435596423 -21.21320343559643 80.0
    vertex 14.99999999999998 -25.980762113533174 80.0
  endloop
endfacet
facet normal 0.38268343236508895 -0.9238795325112871 0.0
  outer loop
    vertex 14.99999999999998 -25.980762113533174 80.0
    vertex 7.76457135307561 -28.977774788672054 -0.9999999999999999
    vertex 14.99999999999998 -25.980762113533174 -0.9999999999999999
  endloop
endfacet
facet normal 0.38268343236508895 -0.9238795325112871 0.0
  outer loop
    vertex 7.76457135307561 -28.977774788672054 -0.9999999999999999
    vertex 14.99999999999998 -25.980762113533174 80.0
    vertex 7.76457135307561 -28.977774788672054 80.0
  endloop
endfacet
facet normal 0.13052619222005116 -0.9914448613738106 0.0
  outer loop
    vertex 7.76457135307561 -28.977774788672054 80.0
    vertex -5.5109105961630896e-15 -30.0 -0.9999999999999999
    vertex 7.76457135307561 -28.977774788672054 -0.9999999999999999
  endloop
endfacet
facet normal 0.13052619222005116 -0.9914448613738106 0.0
  outer loop
    vertex -5.5109105961630896e-15 -30.0 -0.9999999999999999
    vertex 7.76457135307561 -28.977774788672054 80.0
    vertex -5.5109105961630896e-15 -30.0 80.0
  endloop
endfacet
facet normal -0.13052619222005216 -0.9914448613738104 -0.0
  outer loop
    vertex -5.5109105961630896e-15 -30.0 80.0
    vertex -7.764571353075646 -28.977774788672043 -0.9999999999999999
    vertex -5.5109105961630896e-15 -30.0 -0.9999999999999999
  endloop
endfacet
facet normal -0.13052619222005216 -0.9914448613738104 -0.0
  outer loop
    vertex -7.764571353075646 -28.977774788672043 -0.9999999999999999
    vertex -5.5109105961630896e-15 -30.0 80.0
    vertex -7.764571353075646 -28.977774788672043 80.0
  endloop
endfacet
facet normal -0.3826834323650898 -0.923879532511287 -0.0
  outer loop
    vertex -7.764571353075646 -28.977774788672043 80.0
    vertex -15.000000000000014 -25.980762113533157 -0.9999999999999999
    vertex -7.764571353075646 -28.977774788672043 -0.9999999999999999
  endloop
endfacet
facet normal -0.3826834323650898 -0.923879532511287 -0.0
  outer loop
    vertex -15.000000000000014 -25.980762113533157 -0.9999999999999999
    vertex -7.764571353075646 -28.977774788672043 80.0
    vertex -15.000000000000014 -25.980762113533157 80.0
  endloop
endfacet
facet normal -0.6087614290087217 -0.7933533402912346 -0.0
  outer loop
    vertex -15.000000000000014 -25.980762113533157 80.0
    vertex -21.21320343559644 -21.213203435596412 -0.9999999999999999
    vertex -15.000000000000014 -25.980762113533157 -0.9999999999999999
  endloop
endfacet
facet normal -0.6087614290087217 -0.7933533402912346 -0.0
  outer loop
    vertex -21.21320343559644 -21.213203435596412 -0.9999999999999999
    vertex -15.000000000000014 -25.980762113533157 80.0
    vertex -21.21320343559644 -21.213203435596412 80.0
  endloop
endfacet
facet normal -0.7933533402912355 -0.6087614290087202 -0.0
  outer loop
    vertex -25.980762113533164 -14.999999999999993 80.0
    vertex -21.21320343559644 -21.213203435596412 -0.9999999999999999
    vertex -21.21320343559644 -21.213203435596412 80.0
  endloop
endfacet
facet normal -0.7933533402912355 -0.6087614290087202 -0.0
  outer loop
    vertex -21.21320343559644 -21.213203435596412 -0.9999999999999999
    vertex -25.980762113533164 -14.999999999999993 80.0
    vertex -25.980762113533164 -14.999999999999993 -0.9999999999999999
  endloop
endfacet
facet normal -0.9238795325112867 -0.3826834323650898 -0.0
  outer loop
    vertex -28.977774788672054 -7.7645713530756115 80.0
    vertex -25.980762113533164 -14.999999999999993 -0.9999999999999999
    vertex -25.980762113533164 -14.999999999999993 80.0
  endloop
endfacet
facet normal -0.9238795325112867 -0.3826834323650898 -0.0
  outer loop
    vertex -25.980762113533164 -14.999999999999993 -0.9999999999999999
    vertex -28.977774788672054 -7.7645713530756115 80.0
    vertex -28.977774788672054 -7.7645713530756115 -0.9999999999999999
  endloop
endfacet
facet normal -0.9914448613738106 -0.13052619222005116 -0.0
  outer loop
    vertex -30.0 3.67394039744206e-15 80.0
    vertex -28.977774788672054 -7.7645713530756115 -0.9999999999999999
    vertex -28.977774788672054 -7.7645713530756115 80.0
  endloop
endfacet
facet normal -0.9914448613738106 -0.13052619222005116 -0.0
  outer loop
    vertex -28.977774788672054 -7.7645713530756115 -0.9999999999999999
    vertex -30.0 3.67394039744206e-15 80.0
    vertex -30.0 3.67394039744206e-15 -0.9999999999999999
  endloop
endfacet
facet normal -0.9914448613738104 0.13052619222005168 0.0
  outer loop
    vertex -28.97777478867205 7.764571353075631 80.0
    vertex -30.0 3.67394039744206e-15 -0.9999999999999999
    vertex -30.0 3.67394039744206e-15 80.0
  endloop
endfacet
facet normal -0.9914448613738104 0.13052619222005168 0.0
  outer loop
    vertex -30.0 3.67394039744206e-15 -0.9999999999999999
    vertex -28.97777478867205 7.764571353075631 80.0
    vertex -28.97777478867205 7.764571353075631 -0.9999999999999999
  endloop
endfacet
facet normal -0.9238795325112867 0.3826834323650898 0.0
  outer loop
    vertex -25.980762113533157 15.000000000000012 80.0
    vertex -28.97777478867205 7.764571353075631 -0.9999999999999999
    vertex -28.97777478867205 7.764571353075631 80.0
  endloop
endfacet
facet normal -0.9238795325112867 0.3826834323650898 0.0
  outer loop
    vertex -28.97777478867205 7.764571353075631 -0.9999999999999999
    vertex -25.980762113533157 15.000000000000012 80.0
    vertex -25.980762113533157 15.000000000000012 -0.9999999999999999
  endloop
endfacet
facet normal -0.7933533402912347 0.6087614290087212 0.0
  outer loop
    vertex -21.213203435596427 21.213203435596427 80.0
    vertex -25.980762113533157 15.000000000000012 -0.9999999999999999
    vertex -25.980762113533157 15.000000000000012 80.0
  endloop
endfacet
facet normal -0.7933533402912347 0.6087614290087212 0.0
  outer loop
    vertex -25.980762113533157 15.000000000000012 -0.9999999999999999
    vertex -21.213203435596427 21.213203435596427 80.0
    vertex -21.213203435596427 21.213203435596427 -0.9999999999999999
  endloop
endfacet
facet normal -0.6087614290087207 0.7933533402912354 0.0
  outer loop
    vertex -21.213203435596427 21.213203435596427 80.0
    vertex -14.999999999999995 25.980762113533164 -0.9999999999999999
    vertex -21.213203435596427 21.213203435596427 -0.9999999999999999
  endloop
endfacet
facet normal -0.6087614290087207 0.7933533402912354 0.0
  outer loop
    vertex -14.999999999999995 25.980762113533164 -0.9999999999999999
    vertex -21.213203435596427 21.213203435596427 80.0
    vertex -14.999999999999995 25.980762113533164 80.0
  endloop
endfacet
facet normal -0.3826834323650894 0.923879532511287 0.0
  outer loop
    vertex -14.999999999999995 25.980762113533164 80.0
    vertex -7.7645713530756195 28.97777478867205 -0.9999999999999999
    vertex -14.999999999999995 25.980762113533164 -0.9999999999999999
  endloop
endfacet
facet normal -0.3826834323650894 0.923879532511287 0.0
  outer loop
    vertex -7.7645713530756195 28.97777478867205 -0.9999999999999999
    vertex -14.999999999999995 25.980762113533164 80.0
    vertex -7.7645713530756195 28.97777478867205 80.0
  endloop
endfacet
facet normal -0.13052619222005177 0.9914448613738105 0.0
  outer loop
    vertex -7.7645713530756195 28.97777478867205 80.0
    vertex 1.83697019872103e-15 30.0 -0.9999999999999999
    vertex -7.7645713530756195 28.97777478867205 -0.9999999999999999
  endloop
endfacet
facet normal -0.13052619222005177 0.9914448613738105 0.0
  outer loop
    vertex 1.83697019872103e-15 30.0 -0.9999999999999999
    vertex -7.7645713530756195 28.97777478867205 80.0
    vertex 1.83697019872103e-15 30.0 80.0
  endloop
endfacet
facet normal 0.13052619222005166 0.9914448613738104 0.0
  outer loop
    vertex 1.83697019872103e-15 30.0 80.0
    vertex 7.764571353075629 28.97777478867205 -0.9999999999999999
    vertex 1.83697019872103e-15 30.0 -0.9999999999999999
  endloop
endfacet
facet normal 0.13052619222005166 0.9914448613738104 0.0
  outer loop
    vertex 7.764571353075629 28.97777478867205 -0.9999999999999999
    vertex 1.83697019872103e-15 30.0 80.0
    vertex 7.764571353075629 28.97777478867205 80.0
  endloop
endfacet
facet normal 0.3826834323650901 0.9238795325112867 0.0
  outer loop
    vertex 7.764571353075629 28.97777478867205 80.0
    vertex 15.000000000000004 25.980762113533157 -0.9999999999999999
    vertex 7.764571353075629 28.97777478867205 -0.9999999999999999
  endloop
endfacet
facet normal 0.3826834323650901 0.9238795325112867 0.0
  outer loop
    vertex 15.000000000000004 25.980762113533157 -0.9999999999999999
    vertex 7.764571353075629 28.97777478867205 80.0
    vertex 15.000000000000004 25.980762113533157 80.0
  endloop
endfacet
facet normal 0.6087614290087204 0.7933533402912354 0.0
  outer loop
    vertex 15.000000000000004 25.980762113533157 80.0
    vertex 21.213203435596427 21.213203435596427 -0.9999999999999999
    vertex 15.000000000000004 25.980762113533157 -0.9999999999999999
  endloop
endfacet
facet normal 0.6087614290087204 0.7933533402912354 0.0
  outer loop
    vertex 21.213203435596427 21.213203435596427 -0.9999999999999999
    vertex 15.000000000000004 25.980762113533157 80.0
    vertex 21.213203435596427 21.213203435596427 80.0
  endloop
endfacet
facet normal 0.7933533402912354 0.6087614290087207 0.0
  outer loop
    vertex 21.213203435596427 21.213203435596427 -0.9999999999999999
    vertex 25.980762113533164 14.999999999999998 80.0
    vertex 25.980762113533164 14.999999999999998 -0.9999999999999999
  endloop
endfacet
facet normal 0.7933533402912354 0.6087614290087207 0.0
  outer loop
    vertex 25.980762113533164 14.999999999999998 80.0
    vertex 21.213203435596427 21.213203435596427 -0.9999999999999999
    vertex 21.213203435596427 21.213203435596427 80.0
  endloop
endfacet
facet normal 0.923879532511287 0.3826834323650894 0.0
  outer loop
    vertex 25.980762113533164 14.999999999999998 -0.9999999999999999
    vertex 28.97777478867205 7.764571353075622 80.0
    vertex 28.97777478867205 7.764571353075622 -0.9999999999999999
  endloop
endfacet
facet normal 0.923879532511287 0.3826834323650894 0.0
  outer loop
    vertex 28.97777478867205 7.764571353075622 80.0
    vertex 25.980762113533164 14.999999999999998 -0.9999999999999999
    vertex 25.980762113533164 14.999999999999998 80.0
  endloop
endfacet
facet normal 0.0 0.0 1.0
  outer loop
    vertex -28.977774788672054 -7.7645713530756115 80.0
    vertex -28.97777478867205 7.764571353075631 80.0
    vertex -30.0 3.67394039744206e-15 80.0
  endloop
endfacet
facet normal 0.0 0.0 1.0
  outer loop
    vertex -28.97777478867205 7.764571353075631 80.0
    vertex -28.977774788672054 -7.7645713530756115 80.0
    vertex -28.0 -9.005486838189166e-15 80.0
  endloop
endfacet
facet normal 0.0 0.0 1.0
  outer loop
    vertex -28.0 -9.005486838189166e-15 80.0
    vertex -28.977774788672054 -7.7645713530756115 80.0
    vertex -27.04592313609391 -7.246933262870592 80.0
  endloop
endfacet
facet normal 0.0 0.0 1.0
  outer loop
    vertex -27.04592313609391 -7.246933262870592 80.0
    vertex -28.977774788672054 -7.7645713530756115 80.0
    vertex -25.980762113533164 -14.999999999999993 80.0
  endloop
endfacet
facet normal 0.0 0.0 1.0
  outer loop
    vertex -27.04592313609391 -7.246933262870592 80.0
    vertex -25.980762113533164 -14.999999999999993 80.0
    vertex -24.248711305964274 -14.000000000000016 80.0
  endloop
endfacet
facet normal 0.0 0.0 1.0
  outer loop
    vertex -24.248711305964274 -14.000000000000016 80.0
    vertex -25.980762113533164 -14.999999999999993 80.0
    vertex -21.21320343559644 -21.213203435596412 80.0
  endloop
endfacet
facet normal 0.0 0.0 1.0
  outer loop
    vertex -24.248711305964274 -14.000000000000016 80.0
    vertex -21.21320343559644 -21.213203435596412 80.0
    vertex -19.798989873223316 -19.798989873223345 80.0
  endloop
endfacet
facet normal 0.0 0.0 1.0
  outer loop
    vertex -19.798989873223316 -19.798989873223345 80.0
    vertex -21.21320343559644 -21.213203435596412 80.0
    vertex -15.000000000000014 -25.980762113533157 80.0
  endloop
endfacet
facet normal 0.0 0.0 1.0
  outer loop
    vertex -19.798989873223316 -19.798989873223345 80.0
    vertex -15.000000000000014 -25.980762113533157 80.0
    vertex -13.999999999999988 -24.248711305964285 80.0
  endloop
endfacet
facet normal 0.0 0.0 1.0
  outer loop
    vertex -13.999999999999988 -24.248711305964285 80.0
    vertex -15.000000000000014 -25.980762113533157 80.0
    vertex -7.764571353075646 -28.977774788672043 80.0
  endloop
endfacet
facet normal 0.0 0.0 1.0
  outer loop
    vertex -13.999999999999988 -24.248711305964285 80.0
    vertex -7.764571353075646 -28.977774788672043 80.0
    vertex -7.246933262870577 -27.04592313609391 80.0
  endloop
endfacet
facet normal 0.0 0.0 1.0
  outer loop
    vertex -7.246933262870577 -27.04592313609391 80.0
    vertex -7.764571353075646 -28.977774788672043 80.0
    vertex -5.5109105961630896e-15 -30.0 80.0
  endloop
endfacet
facet normal 0.0 0.0 1.0
  outer loop
    vertex -7.246933262870577 -27.04592313609391 80.0
    vertex -5.5109105961630896e-15 -30.0 80.0
    vertex -5.143516556418883e-15 -28.0 80.0
  endloop
endfacet
facet normal 0.0 0.0 1.0
  outer loop
    vertex -5.143516556418883e-15 -28.0 80.0
    vertex -5.5109105961630896e-15 -30.0 80.0
    vertex 7.76457135307561 -28.977774788672054 80.0
  endloop
endfacet
facet normal 0.0 0.0 1.0
  outer loop
    vertex -5.143516556418883e-15 -28.0 80.0
    vertex 7.76457135307561 -28.977774788672054 80.0
    vertex 7.246933262870568 -27.045923136093915 80.0
  endloop
endfacet
facet normal 0.0 0.0 1.0
  outer loop
    vertex 7.246933262870568 -27.045923136093915 80.0
    vertex 7.76457135307561 -28.977774788672054 80.0
    vertex 13.99999999999998 -24.248711305964292 80.0
  endloop
endfacet
facet normal 0.0 0.0 1.0
  outer loop
    vertex 13.99999999999998 -24.248711305964292 80.0
    vertex 7.76457135307561 -28.977774788672054 80.0
    vertex 14.99999999999998 -25.980762113533174 80.0
  endloop
endfacet
facet normal 0.0 0.0 1.0
  outer loop
    vertex 13.99999999999998 -24.248711305964292 80.0
    vertex 14.99999999999998 -25.980762113533174 80.0
    vertex 19.79898987322331 -19.798989873223356 80.0
  endloop
endfacet
facet normal 0.0 0.0 1.0
  outer loop
    vertex 19.79898987322331 -19.798989873223356 80.0
    vertex 14.99999999999998 -25.980762113533174 80.0
    vertex 21.213203435596423 -21.21320343559643 80.0
  endloop
endfacet
facet normal 0.0 0.0 1.0
  outer loop
    vertex 19.79898987322331 -19.798989873223356 80.0
    vertex 21.213203435596423 -21.21320343559643 80.0
    vertex 24.248711305964264 -14.000000000000034 80.0
  endloop
endfacet
facet normal 0.0 0.0 1.0
  outer loop
    vertex 24.248711305964264 -14.000000000000034 80.0
    vertex 21.213203435596423 -21.21320343559643 80.0
    vertex 25.980762113533153 -15.000000000000014 80.0
  endloop
endfacet
facet normal 0.0 0.0 1.0
  outer loop
    vertex 24.248711305964264 -14.000000000000034 80.0
    vertex 25.980762113533153 -15.000000000000014 80.0
    vertex 27.0459231360939 -7.246933262870628 80.0
  endloop
endfacet
facet normal 0.0 0.0 1.0
  outer loop
    vertex 27.0459231360939 -7.246933262870628 80.0
    vertex 25.980762113533153 -15.000000000000014 80.0
    vertex 28.977774788672043 -7.764571353075648 80.0
  endloop
endfacet
facet normal 0.0 0.0 1.0
  outer loop
    vertex 27.0459231360939 -7.246933262870628 80.0
    vertex 28.977774788672043 -7.764571353075648 80.0
    vertex 28.0 0.0 80.0
  endloop
endfacet
facet normal 0.0 0.0 1.0
  outer loop
    vertex -28.97777478867205 7.764571353075631 80.0
    vertex -27.04592313609391 7.246933262870575 80.0
    vertex -25.980762113533157 15.000000000000012 80.0
  endloop
endfacet
facet normal 0.0 0.0 1.0
  outer loop
    vertex -27.04592313609391 7.246933262870575 80.0
    vertex -28.97777478867205 7.764571353075631 80.0
    vertex -28.0 -9.005486838189166e-15 80.0
  endloop
endfacet
facet normal 0.0 0.0 1.0
  outer loop
    vertex -25.980762113533157 15.000000000000012 80.0
    vertex -27.04592313609391 7.246933262870575 80.0
    vertex -24.24871130596428 13.999999999999996 80.0
  endloop
endfacet
facet normal 0.0 0.0 1.0
  outer loop
    vertex -25.980762113533157 15.000000000000012 80.0
    vertex -24.24871130596428 13.999999999999996 80.0
    vertex -21.213203435596427 21.213203435596427 80.0
  endloop
endfacet
facet normal 0.0 0.0 1.0
  outer loop
    vertex -21.213203435596427 21.213203435596427 80.0
    vertex -24.24871130596428 13.999999999999996 80.0
    vertex -19.79898987322333 19.79898987322333 80.0
  endloop
endfacet
facet normal 0.0 0.0 1.0
  outer loop
    vertex -21.213203435596427 21.213203435596427 80.0
    vertex -19.79898987322333 19.79898987322333 80.0
    vertex -14.999999999999995 25.980762113533164 80.0
  endloop
endfacet
facet normal 0.0 0.0 1.0
  outer loop
    vertex -14.999999999999995 25.980762113533164 80.0
    vertex -19.79898987322333 19.79898987322333 80.0
    vertex -13.999999999999995 24.24871130596428 80.0
  endloop
endfacet
facet normal 0.0 0.0 1.0
  outer loop
    vertex -14.999999999999995 25.980762113533164 80.0
    vertex -13.999999999999995 24.24871130596428 80.0
    vertex -7.7645713530756195 28.97777478867205 80.0
  endloop
endfacet
facet normal 0.0 0.0 1.0
  outer loop
    vertex -7.7645713530756195 28.97777478867205 80.0
    vertex -13.999999999999995 24.24871130596428 80.0
    vertex -7.246933262870571 27.045923136093915 80.0
  endloop
endfacet
facet normal 0.0 0.0 1.0
  outer loop
    vertex -7.7645713530756195 28.97777478867205 80.0
    vertex -7.246933262870571 27.045923136093915 80.0
    vertex 1.83697019872103e-15 30.0 80.0
  endloop
endfacet
facet normal 0.0 0.0 1.0
  outer loop
    vertex 1.83697019872103e-15 30.0 80.0
    vertex -7.246933262870571 27.045923136093915 80.0
    vertex 7.931754456707172e-15 28.0 80.0
  endloop
endfacet
facet normal 0.0 0.0 1.0
  outer loop
    vertex 1.83697019872103e-15 30.0 80.0
    vertex 7.931754456707172e-15 28.0 80.0
    vertex 7.764571353075629 28.97777478867205 80.0
  endloop
endfacet
facet normal 0.0 0.0 1.0
  outer loop
    vertex 7.764571353075629 28.97777478867205 80.0
    vertex 7.931754456707172e-15 28.0 80.0
    vertex 7.246933262870587 27.04592313609391 80.0
  endloop
endfacet
facet normal 0.0 0.0 1.0
  outer loop
    vertex 7.764571353075629 28.97777478867205 80.0
    vertex 7.246933262870587 27.04592313609391 80.0
    vertex 14.000000000000002 24.24871130596428 80.0
  endloop
endfacet
facet normal 0.0 0.0 1.0
  outer loop
    vertex 7.764571353075629 28.97777478867205 80.0
    vertex 14.000000000000002 24.24871130596428 80.0
    vertex 15.000000000000004 25.980762113533157 80.0
  endloop
endfacet
facet normal 0.0 0.0 1.0
  outer loop
    vertex 15.000000000000004 25.980762113533157 80.0
    vertex 14.000000000000002 24.24871130596428 80.0
    vertex 19.79898987322333 19.79898987322333 80.0
  endloop
endfacet
facet normal 0.0 0.0 1.0
  outer loop
    vertex 15.000000000000004 25.980762113533157 80.0
    vertex 19.79898987322333 19.79898987322333 80.0
    vertex 21.213203435596427 21.213203435596427 80.0
  endloop
endfacet
facet normal 0.0 0.0 1.0
  outer loop
    vertex 21.213203435596427 21.213203435596427 80.0
    vertex 19.79898987322333 19.79898987322333 80.0
    vertex 24.24871130596428 13.999999999999996 80.0
  endloop
endfacet
facet normal 0.0 0.0 1.0
  outer loop
    vertex 21.213203435596427 21.213203435596427 80.0
    vertex 24.24871130596428 13.999999999999996 80.0
    vertex 25.980762113533164 14.999999999999998 80.0
  endloop
endfacet
facet normal 0.0 0.0 1.0
  outer loop
    vertex 25.980762113533164 14.999999999999998 80.0
    vertex 24.24871130596428 13.999999999999996 80.0
    vertex 27.04592313609391 7.246933262870581 80.0
  endloop
endfacet
facet normal 0.0 0.0 1.0
  outer loop
    vertex 25.980762113533164 14.999999999999998 80.0
    vertex 27.04592313609391 7.246933262870581 80.0
    vertex 28.97777478867205 7.764571353075622 80.0
  endloop
endfacet
facet normal 0.0 0.0 1.0
  outer loop
    vertex 28.97777478867205 7.764571353075622 80.0
    vertex 27.04592313609391 7.246933262870581 80.0
    vertex 28.0 0.0 80.0
  endloop
endfacet
facet normal 0.0 0.0 1.0
  outer loop
    vertex 28.97777478867205 7.764571353075622 80.0
    vertex 28.0 0.0 80.0
    vertex 28.977774788672043 -7.764571353075648 80.0
  endloop
endfacet
facet normal 0.0 0.0 1.0
  outer loop
    vertex 28.97777478867205 7.764571353075622 80.0
    vertex 28.977774788672043 -7.764571353075648 80.0
    vertex 30.0 0.0 80.0
  endloop
endfacet
facet normal 0.1328064416436991 0.06435966781702211 0.989050191960156
  outer loop
    vertex 9.034236324361686e-15 -28.0 10.355957031250002
    vertex -2.6505535218595497e-15 0.0 8.533935546875007
    vertex -7.246933262870588 -27.045923136093933 11.266967773437496
  endloop
endfacet
facet normal 0.14250031510098632 0.010326024225660285 0.9897408920620644
  outer loop
    vertex 0.0 0.0 6.711914062500002
    vertex -13.999999999999947 24.248711305964296 8.474609375000004
    vertex -19.798989873223345 19.79898987322332 9.355957031250005
  endloop
endfacet
facet normal 0.10806454088179031 0.09346133737646613 0.9897408920620642
  outer loop
    vertex 7.24693326287059 -27.04592313609398 8.474609374999998
    vertex 0.0 0.0 6.711914062500002
    vertex -1.50360194886582e-14 -28.00000000000002 9.355957031250004
  endloop
endfacet
facet normal 0.1341406934638246 -0.025723178191793972 0.9906283826242601
  outer loop
    vertex 0.0 0.0 4.949218750000001
    vertex -7.246933262870547 27.045923136093997 6.63281250000001
    vertex -14.00000000000003 24.24871130596433 7.47460937500002
  endloop
endfacet
facet normal 0.1341406934638246 -0.025723178191793972 0.9906283826242601
  outer loop
    vertex -7.246933262870547 27.045923136093997 6.63281250000001
    vertex 0.0 0.0 4.949218750000001
    vertex -1.8294884321105338 6.840044538487289 5.374956444539646
  endloop
endfacet
facet normal 0.07666276024825054 0.11304082771442381 0.9906283826242599
  outer loop
    vertex 7.246933262870547 -27.045923136093894 7.474609375000004
    vertex 3.5854227029984664 -6.21013428820428 5.380389839562593
    vertex 0.0 0.0 4.949218750000001
  endloop
endfacet
facet normal 0.07666276024825054 0.11304082771442381 0.9906283826242599
  outer loop
    vertex 3.5854227029984664 -6.21013428820428 5.380389839562593
    vertex 7.246933262870547 -27.045923136093894 7.474609375000004
    vertex 13.999999999999996 -24.248711305964278 6.632812499999989
  endloop
endfacet
facet normal 0.04203494973707053 0.12108485232659666 0.9917517439045159
  outer loop
    vertex 13.999999999999929 -24.248711305964292 5.632812500000009
    vertex 5.260990347639754 -5.26099034763976 3.6849645948748675
    vertex 3.5854227029984664 -6.210134288204317 3.8718655574824496
  endloop
endfacet
facet normal 0.04203494973707053 0.12108485232659666 0.9917517439045159
  outer loop
    vertex 5.260990347639754 -5.26099034763976 3.6849645948748675
    vertex 13.999999999999929 -24.248711305964292 5.632812500000009
    vertex 19.798989873223313 -19.79898987322333 4.843750000000008
  endloop
endfacet
facet normal 0.008449937582816503 0.11661010489813718 0.9931418237041939
  outer loop
    vertex 19.798989873223235 -19.798989873223334 3.843750000000011
    vertex 6.682874683742908 -3.8583594976195026 2.083670841273435
    vertex 5.260990347639754 -5.2609903476397815 2.2604590504230875
  endloop
endfacet
facet normal 0.008449937582816503 0.11661010489813718 0.9931418237041939
  outer loop
    vertex 6.682874683742908 -3.8583594976195026 2.083670841273435
    vertex 19.798989873223235 -19.798989873223334 3.843750000000011
    vertex 24.248711305964196 -13.999999999999952 3.125000000000004
  endloop
endfacet
facet normal -0.01917886383635694 0.10001353937198827 0.9948012178944265
  outer loop
    vertex 24.248711305964157 -14.000000000000002 2.1250000000000036
    vertex 7.727406610312554 -2.070552360820136 0.6071428571428461
    vertex 6.682874683742908 -3.858359497619524 0.7667445755740454
  endloop
endfacet
facet normal -0.01917886383635694 0.10001353937198827 0.9948012178944265
  outer loop
    vertex 7.727406610312554 -2.070552360820136 0.6071428571428461
    vertex 24.248711305964157 -14.000000000000002 2.1250000000000036
    vertex 27.045923136093844 -7.246933262870451 1.499999999999953
  endloop
endfacet
facet normal 0.1399212183364065 -0.14140616294710856 0.9800134436526018
  outer loop
    vertex 5.872864767784484 5.872864767784455 -0.991101266066515
    vertex 13.999999999999941 24.248711305964303 0.5000000000000001
    vertex 3.9999999999999933 6.928203230275509 -0.5714285714285706
  endloop
endfacet
facet normal 0.1399212183364065 -0.14140616294710856 0.9800134436526018
  outer loop
    vertex 13.999999999999941 24.248711305964303 0.5000000000000001
    vertex 5.872864767784484 5.872864767784455 -0.991101266066515
    vertex 19.7989898732234 19.79898987322331 -0.9699999999999995
  endloop
endfacet
facet normal 0.13941749301984563 0.04839917792318637 0.9890501919601558
  outer loop
    vertex -2.6505535218595497e-15 0.0 8.533935546875007
    vertex -19.79898987322333 19.79898987322336 10.35595703124999
    vertex -24.248711305964296 13.999999999999986 11.266967773437495
  endloop
endfacet
facet normal 0.06452871916292748 0.026728670639849867 0.9975578291853654
  outer loop
    vertex 0.0 0.0 16.168940544128414
    vertex -27.045923136093933 -7.246933262870591 18.11262702941896
    vertex -24.248711305964267 -14.000000000000053 18.11262702941896
  endloop
endfacet
facet normal 0.1471048029076457 -0.05106784934275631 0.9878017269295536
  outer loop
    vertex 0.0 -2.8002364998533095e-15 14.225254058837894
    vertex -24.248711305964257 -13.999999999999972 17.112627029418952
    vertex -19.798989873223263 -19.79898987322336 16.150169372558597
  endloop
endfacet
facet normal 0.15333832239859738 -0.01111138056563656 0.9881112771879034
  outer loop
    vertex 0.0 1.878475030557534e-30 12.300338745117198
    vertex -19.79898987322337 -19.798989873223366 15.150169372558596
    vertex -13.999999999999986 -24.248711305964314 14.200225830078121
  endloop
endfacet
facet normal 0.14839827996395163 0.02845725111670083 0.988518151256021
  outer loop
    vertex 0.0 0.0 10.400451660156255
    vertex -13.999999999999986 -24.248711305964324 13.200225830078125
    vertex -7.246933262870568 -27.04592313609395 12.266967773437502
  endloop
endfacet
facet normal 0.0679083811102306 0.14012922625198185 0.9878017269295538
  outer loop
    vertex 0.0 -2.8002364998533095e-15 14.225254058837894
    vertex -27.99999999999999 1.584367973697632e-14 16.150169372558597
    vertex -27.0459231360939 -7.2469332628706065 17.11262702941894
  endloop
endfacet
facet normal 0.10056963503751096 0.11628350013012541 0.9881112771879031
  outer loop
    vertex 0.0 1.878475030557534e-30 12.300338745117198
    vertex -27.0459231360939 7.246933262870578 14.200225830078098
    vertex -27.99999999999995 -4.66913195693697e-14 15.150169372558581
  endloop
endfacet
facet normal 0.1250557453174775 0.08481111484038206 0.988518151256021
  outer loop
    vertex 0.0 0.0 10.400451660156255
    vertex -24.248711305964264 13.999999999999995 12.266967773437505
    vertex -27.045923136093933 7.2469332628705585 13.200225830078134
  endloop
endfacet
facet normal 0.7071067811865482 -0.7071067811865468 -3.1883110672187314e-12
  outer loop
    vertex 19.79898987322336 19.7989898732234 -0.999999999999999
    vertex 19.7989898732234 19.79898987322331 -0.9699999999999995
    vertex 5.872864767784484 5.872864767784455 -0.991101266066515
  endloop
endfacet
facet normal -8.482074877759615e-16 1.0 -2.7948666646792795e-12
  outer loop
    vertex 28.000000000000135 1.0759580959810368e-13 -0.9699999999999995
    vertex 28.00000000000003 2.3749809657720535e-14 -1.000000000000001
    vertex 8.305485004585156 3.191554939904448e-14 -0.991101266066515
  endloop
endfacet
facet normal -0.9238795325112871 -0.3826834323650892 -1.4007287282579155e-15
  outer loop
    vertex 24.24871130596428 13.999999999999996 80.0
    vertex 27.04592313609394 7.246933262870616 -1.0000000000000002
    vertex 27.04592313609391 7.246933262870581 80.0
  endloop
endfacet
facet normal -0.9238795325112871 -0.3826834323650892 -1.4007287282579155e-15
  outer loop
    vertex 27.04592313609394 7.246933262870616 -1.0000000000000002
    vertex 24.24871130596428 13.999999999999996 80.0
    vertex 24.248711305964314 14.000000000000044 -0.9999999999999996
  endloop
endfacet
facet normal -0.9914448613738098 -0.13052619222005618 -2.097746166617679e-15
  outer loop
    vertex 27.04592313609391 7.246933262870581 80.0
    vertex 28.000000000000135 1.0759580959810368e-13 -0.9699999999999995
    vertex 28.0 0.0 80.0
  endloop
endfacet
facet normal -0.9914448613738098 -0.13052619222005618 -2.097746166617679e-15
  outer loop
    vertex 28.000000000000135 1.0759580959810368e-13 -0.9699999999999995
    vertex 27.04592313609394 7.246933262870616 -1.0000000000000002
    vertex 28.00000000000003 2.3749809657720535e-14 -1.000000000000001
  endloop
endfacet
facet normal -0.9914448613738098 -0.13052619222005618 -2.097746166617679e-15
  outer loop
    vertex 27.04592313609394 7.246933262870616 -1.0000000000000002
    vertex 28.000000000000135 1.0759580959810368e-13 -0.9699999999999995
    vertex 27.04592313609391 7.246933262870581 80.0
  endloop
endfacet
facet normal -0.7933533402912355 -0.6087614290087202 -1.7323792954867292e-15
  outer loop
    vertex 19.79898987322333 19.79898987322333 80.0
    vertex 24.248711305964314 14.000000000000044 -0.9999999999999996
    vertex 24.24871130596428 13.999999999999996 80.0
  endloop
endfacet
facet normal -0.7933533402912355 -0.6087614290087202 -1.7323792954867292e-15
  outer loop
    vertex 24.248711305964314 14.000000000000044 -0.9999999999999996
    vertex 19.79898987322333 19.79898987322333 80.0
    vertex 19.7989898732234 19.79898987322331 -0.9699999999999995
  endloop
endfacet
facet normal -0.7933533402912355 -0.6087614290087202 -1.7323792954867292e-15
  outer loop
    vertex 19.79898987322336 19.7989898732234 -0.999999999999999
    vertex 24.248711305964314 14.000000000000044 -0.9999999999999996
    vertex 19.7989898732234 19.79898987322331 -0.9699999999999995
  endloop
endfacet
facet normal -0.9914448613738096 0.13052619222005796 -2.7293010601471176e-15
  outer loop
    vertex 28.0 0.0 80.0
    vertex 27.045923136093844 -7.246933262870451 1.499999999999953
    vertex 27.0459231360939 -7.246933262870628 80.0
  endloop
endfacet
facet normal -0.9914448613738096 0.13052619222005796 -2.7293010601471176e-15
  outer loop
    vertex 27.045923136093844 -7.246933262870451 1.499999999999953
    vertex 28.000000000000135 1.0759580959810368e-13 -0.9699999999999995
    vertex 27.045923136094057 -7.246933262870712 0.5000000000000208
  endloop
endfacet
facet normal -0.9914448613738096 0.13052619222005796 -2.7293010601471176e-15
  outer loop
    vertex 28.000000000000135 1.0759580959810368e-13 -0.9699999999999995
    vertex 27.045923136093844 -7.246933262870451 1.499999999999953
    vertex 28.0 0.0 80.0
  endloop
endfacet
facet normal -0.6087614290087193 -0.7933533402912363 -4.228306692926867e-16
  outer loop
    vertex 19.79898987322333 19.79898987322333 80.0
    vertex 13.999999999999941 24.248711305964303 0.5000000000000001
    vertex 19.7989898732234 19.79898987322331 -0.9699999999999995
  endloop
endfacet
facet normal -0.6087614290087193 -0.7933533402912363 -4.228306692926867e-16
  outer loop
    vertex 13.999999999999941 24.248711305964303 0.5000000000000001
    vertex 19.79898987322333 19.79898987322333 80.0
    vertex 14.00000000000003 24.248711305964292 1.4999999999999982
  endloop
endfacet
facet normal -0.6087614290087193 -0.7933533402912363 -4.228306692926867e-16
  outer loop
    vertex 14.00000000000003 24.248711305964292 1.4999999999999982
    vertex 19.79898987322333 19.79898987322333 80.0
    vertex 14.000000000000002 24.24871130596428 80.0
  endloop
endfacet
facet normal 0.86602540378444 -0.4999999999999975 -3.8388881711812703e-14
  outer loop
    vertex 3.9999999999999933 6.928203230275509 -0.5714285714285706
    vertex 14.00000000000003 24.248711305964292 1.4999999999999982
    vertex 4.000000000000005 6.928203230275508 0.6071428571428575
  endloop
endfacet
facet normal 0.86602540378444 -0.4999999999999975 -3.8388881711812703e-14
  outer loop
    vertex 14.00000000000003 24.248711305964292 1.4999999999999982
    vertex 3.9999999999999933 6.928203230275509 -0.5714285714285706
    vertex 13.999999999999941 24.248711305964303 0.5000000000000001
  endloop
endfacet
facet normal -0.3826834323650942 -0.9238795325112849 -1.9571634131560864e-15
  outer loop
    vertex 14.000000000000002 24.24871130596428 80.0
    vertex 7.246933262870557 27.04592313609396 2.1250000000000036
    vertex 14.00000000000003 24.248711305964292 1.4999999999999982
  endloop
endfacet
facet normal -0.3826834323650942 -0.9238795325112849 -1.9571634131560864e-15
  outer loop
    vertex 7.246933262870557 27.04592313609396 2.1250000000000036
    vertex 14.000000000000002 24.24871130596428 80.0
    vertex 7.246933262870618 27.045923136094036 3.125
  endloop
endfacet
facet normal -0.3826834323650942 -0.9238795325112849 -1.9571634131560864e-15
  outer loop
    vertex 7.246933262870618 27.045923136094036 3.125
    vertex 14.000000000000002 24.24871130596428 80.0
    vertex 7.246933262870587 27.04592313609391 80.0
  endloop
endfacet
facet normal 0.5000000000000026 0.8660254037844372 -3.112877506897837e-14
  outer loop
    vertex 6.682874683742908 -3.8583594976195026 2.083670841273435
    vertex 24.248711305964157 -14.000000000000002 2.1250000000000036
    vertex 6.682874683742908 -3.858359497619524 0.7667445755740454
  endloop
endfacet
facet normal 0.5000000000000026 0.8660254037844372 -3.112877506897837e-14
  outer loop
    vertex 24.248711305964157 -14.000000000000002 2.1250000000000036
    vertex 6.682874683742908 -3.8583594976195026 2.083670841273435
    vertex 24.248711305964196 -13.999999999999952 3.125000000000004
  endloop
endfacet
facet normal -0.9238795325112867 0.3826834323650901 3.897512707642403e-15
  outer loop
    vertex 27.0459231360939 -7.246933262870628 80.0
    vertex 24.248711305964196 -13.999999999999952 3.125000000000004
    vertex 24.248711305964264 -14.000000000000034 80.0
  endloop
endfacet
facet normal -0.9238795325112867 0.3826834323650901 3.897512707642403e-15
  outer loop
    vertex 24.248711305964196 -13.999999999999952 3.125000000000004
    vertex 27.045923136093844 -7.246933262870451 1.499999999999953
    vertex 24.248711305964157 -14.000000000000002 2.1250000000000036
  endloop
endfacet
facet normal -0.9238795325112867 0.3826834323650901 3.897512707642403e-15
  outer loop
    vertex 27.045923136093844 -7.246933262870451 1.499999999999953
    vertex 24.248711305964196 -13.999999999999952 3.125000000000004
    vertex 27.0459231360939 -7.246933262870628 80.0
  endloop
endfacet
facet normal -0.7933533402912373 0.6087614290087182 2.6445744053227063e-15
  outer loop
    vertex 24.248711305964264 -14.000000000000034 80.0
    vertex 19.798989873223313 -19.79898987322333 4.843750000000008
    vertex 19.79898987322331 -19.798989873223356 80.0
  endloop
endfacet
facet normal -0.7933533402912373 0.6087614290087182 2.6445744053227063e-15
  outer loop
    vertex 19.798989873223313 -19.79898987322333 4.843750000000008
    vertex 24.248711305964196 -13.999999999999952 3.125000000000004
    vertex 19.798989873223235 -19.798989873223334 3.843750000000011
  endloop
endfacet
facet normal -0.7933533402912373 0.6087614290087182 2.6445744053227063e-15
  outer loop
    vertex 24.248711305964196 -13.999999999999952 3.125000000000004
    vertex 19.798989873223313 -19.79898987322333 4.843750000000008
    vertex 24.248711305964264 -14.000000000000034 80.0
  endloop
endfacet
facet normal -0.13052619222005107 -0.9914448613738105 -4.533924508443082e-15
  outer loop
    vertex 7.246933262870587 27.04592313609391 80.0
    vertex -4.0916274722665365e-15 28.000000000000117 3.8437500000000084
    vertex 7.246933262870618 27.045923136094036 3.125
  endloop
endfacet
facet normal -0.13052619222005107 -0.9914448613738105 -4.533924508443082e-15
  outer loop
    vertex -4.0916274722665365e-15 28.000000000000117 3.8437500000000084
    vertex 7.246933262870587 27.04592313609391 80.0
    vertex 2.6423719034411213e-14 28.000000000000107 4.8437499999999964
  endloop
endfacet
facet normal -0.13052619222005107 -0.9914448613738105 -4.533924508443082e-15
  outer loop
    vertex 2.6423719034411213e-14 28.000000000000107 4.8437499999999964
    vertex 7.246933262870587 27.04592313609391 80.0
    vertex 7.931754456707172e-15 28.0 80.0
  endloop
endfacet
facet normal 0.7071067811865497 0.7071067811865454 -2.5518817934515908e-14
  outer loop
    vertex 5.260990347639754 -5.2609903476397815 2.2604590504230875
    vertex 19.798989873223313 -19.79898987322333 4.843750000000008
    vertex 19.798989873223235 -19.798989873223334 3.843750000000011
  endloop
endfacet
facet normal 0.7071067811865497 0.7071067811865454 -2.5518817934515908e-14
  outer loop
    vertex 19.798989873223313 -19.79898987322333 4.843750000000008
    vertex 5.260990347639754 -5.2609903476397815 2.2604590504230875
    vertex 5.260990347639754 -5.26099034763976 3.6849645948748675
  endloop
endfacet
facet normal 0.1305261922200513 -0.9914448613738105 -4.078190814698837e-15
  outer loop
    vertex 7.931754456707172e-15 28.0 80.0
    vertex -7.246933262870598 27.04592313609403 5.6328125000000036
    vertex 2.6423719034411213e-14 28.000000000000107 4.8437499999999964
  endloop
endfacet
facet normal 0.1305261922200513 -0.9914448613738105 -4.078190814698837e-15
  outer loop
    vertex -7.246933262870598 27.04592313609403 5.6328125000000036
    vertex 7.931754456707172e-15 28.0 80.0
    vertex -7.246933262870547 27.045923136093997 6.63281250000001
  endloop
endfacet
facet normal 0.1305261922200513 -0.9914448613738105 -4.078190814698837e-15
  outer loop
    vertex -7.246933262870547 27.045923136093997 6.63281250000001
    vertex 7.931754456707172e-15 28.0 80.0
    vertex -7.246933262870571 27.045923136093915 80.0
  endloop
endfacet
facet normal 0.8660254037844402 0.4999999999999974 -2.8160187688144012e-14
  outer loop
    vertex 3.5854227029984664 -6.210134288204317 3.8718655574824496
    vertex 13.999999999999996 -24.248711305964278 6.632812499999989
    vertex 13.999999999999929 -24.248711305964292 5.632812500000009
  endloop
endfacet
facet normal 0.8660254037844402 0.4999999999999974 -2.8160187688144012e-14
  outer loop
    vertex 13.999999999999996 -24.248711305964278 6.632812499999989
    vertex 3.5854227029984664 -6.210134288204317 3.8718655574824496
    vertex 3.5854227029984664 -6.21013428820428 5.380389839562593
  endloop
endfacet
facet normal -0.6087614290087198 0.793353340291236 7.386188092945957e-16
  outer loop
    vertex 13.999999999999929 -24.248711305964292 5.632812500000009
    vertex 19.79898987322331 -19.798989873223356 80.0
    vertex 19.798989873223313 -19.79898987322333 4.843750000000008
  endloop
endfacet
facet normal -0.6087614290087198 0.793353340291236 7.386188092945957e-16
  outer loop
    vertex 19.79898987322331 -19.798989873223356 80.0
    vertex 13.999999999999929 -24.248711305964292 5.632812500000009
    vertex 13.999999999999996 -24.248711305964278 6.632812499999989
  endloop
endfacet
facet normal -0.6087614290087198 0.793353340291236 7.386188092945957e-16
  outer loop
    vertex 19.79898987322331 -19.798989873223356 80.0
    vertex 13.999999999999996 -24.248711305964278 6.632812499999989
    vertex 13.99999999999998 -24.248711305964292 80.0
  endloop
endfacet
facet normal -0.3826834323650912 0.9238795325112862 -1.9399978871325539e-16
  outer loop
    vertex 7.246933262870547 -27.045923136093894 7.474609375000004
    vertex 13.99999999999998 -24.248711305964292 80.0
    vertex 13.999999999999996 -24.248711305964278 6.632812499999989
  endloop
endfacet
facet normal -0.3826834323650912 0.9238795325112862 -1.9399978871325539e-16
  outer loop
    vertex 13.99999999999998 -24.248711305964292 80.0
    vertex 7.246933262870547 -27.045923136093894 7.474609375000004
    vertex 7.24693326287059 -27.04592313609398 8.474609374999998
  endloop
endfacet
facet normal -0.3826834323650912 0.9238795325112862 -1.9399978871325539e-16
  outer loop
    vertex 13.99999999999998 -24.248711305964292 80.0
    vertex 7.24693326287059 -27.04592313609398 8.474609374999998
    vertex 7.246933262870568 -27.045923136093915 80.0
  endloop
endfacet
facet normal 0.3826834323650927 -0.9238795325112857 -1.9527610311268425e-15
  outer loop
    vertex -7.246933262870571 27.045923136093915 80.0
    vertex -14.00000000000003 24.24871130596433 7.47460937500002
    vertex -7.246933262870547 27.045923136093997 6.63281250000001
  endloop
endfacet
facet normal 0.3826834323650927 -0.9238795325112857 -1.9527610311268425e-15
  outer loop
    vertex -14.00000000000003 24.24871130596433 7.47460937500002
    vertex -7.246933262870571 27.045923136093915 80.0
    vertex -13.999999999999947 24.248711305964296 8.474609375000004
  endloop
endfacet
facet normal 0.3826834323650927 -0.9238795325112857 -1.9527610311268425e-15
  outer loop
    vertex -13.999999999999947 24.248711305964296 8.474609375000004
    vertex -7.246933262870571 27.045923136093915 80.0
    vertex -13.999999999999995 24.24871130596428 80.0
  endloop
endfacet
facet normal 0.6087614290087184 -0.7933533402912369 6.706666681099339e-17
  outer loop
    vertex -13.999999999999995 24.24871130596428 80.0
    vertex -19.798989873223345 19.79898987322332 9.355957031250005
    vertex -13.999999999999947 24.248711305964296 8.474609375000004
  endloop
endfacet
facet normal 0.6087614290087184 -0.7933533402912369 6.706666681099339e-17
  outer loop
    vertex -19.798989873223345 19.79898987322332 9.355957031250005
    vertex -13.999999999999995 24.24871130596428 80.0
    vertex -19.79898987322333 19.79898987322336 10.35595703124999
  endloop
endfacet
facet normal 0.6087614290087184 -0.7933533402912369 6.706666681099339e-17
  outer loop
    vertex -19.79898987322333 19.79898987322336 10.35595703124999
    vertex -13.999999999999995 24.24871130596428 80.0
    vertex -19.79898987322333 19.79898987322333 80.0
  endloop
endfacet
facet normal 1.0 -4.150673659181508e-16 -4.454154895830095e-15
  outer loop
    vertex 0.0 0.0 6.711914062500002
    vertex 9.034236324361686e-15 -28.0 10.355957031250002
    vertex -1.50360194886582e-14 -28.00000000000002 9.355957031250004
  endloop
endfacet
facet normal 1.0 -4.150673659181508e-16 -4.454154895830095e-15
  outer loop
    vertex 9.034236324361686e-15 -28.0 10.355957031250002
    vertex 0.0 0.0 6.711914062500002
    vertex -2.6505535218595497e-15 0.0 8.533935546875007
  endloop
endfacet
facet normal 0.7071067811865472 0.7071067811865479 -4.824187635769797e-15
  outer loop
    vertex -19.798989873223345 19.79898987322332 9.355957031250005
    vertex -2.6505535218595497e-15 0.0 8.533935546875007
    vertex 0.0 0.0 6.711914062500002
  endloop
endfacet
facet normal 0.7071067811865472 0.7071067811865479 -4.824187635769797e-15
  outer loop
    vertex -2.6505535218595497e-15 0.0 8.533935546875007
    vertex -19.798989873223345 19.79898987322332 9.355957031250005
    vertex -19.79898987322333 19.79898987322336 10.35595703124999
  endloop
endfacet
facet normal -0.13052619222004722 0.9914448613738112 -1.7025051296802567e-15
  outer loop
    vertex -1.50360194886582e-14 -28.00000000000002 9.355957031250004
    vertex 7.246933262870568 -27.045923136093915 80.0
    vertex 7.24693326287059 -27.04592313609398 8.474609374999998
  endloop
endfacet
facet normal -0.13052619222004722 0.9914448613738112 -1.7025051296802567e-15
  outer loop
    vertex 7.246933262870568 -27.045923136093915 80.0
    vertex -1.50360194886582e-14 -28.00000000000002 9.355957031250004
    vertex 9.034236324361686e-15 -28.0 10.355957031250002
  endloop
endfacet
facet normal -0.13052619222004722 0.9914448613738112 -1.7025051296802567e-15
  outer loop
    vertex 7.246933262870568 -27.045923136093915 80.0
    vertex 9.034236324361686e-15 -28.0 10.355957031250002
    vertex -5.143516556418883e-15 -28.0 80.0
  endloop
endfacet
facet normal 0.13052619222004921 0.9914448613738107 -8.457958521802129e-16
  outer loop
    vertex -7.246933262870588 -27.045923136093933 11.266967773437496
    vertex -5.143516556418883e-15 -28.0 80.0
    vertex 9.034236324361686e-15 -28.0 10.355957031250002
  endloop
endfacet
facet normal 0.13052619222004921 0.9914448613738107 -8.457958521802129e-16
  outer loop
    vertex -5.143516556418883e-15 -28.0 80.0
    vertex -7.246933262870588 -27.045923136093933 11.266967773437496
    vertex -7.246933262870568 -27.04592313609395 12.266967773437502
  endloop
endfacet
facet normal 0.13052619222004921 0.9914448613738107 -8.457958521802129e-16
  outer loop
    vertex -5.143516556418883e-15 -28.0 80.0
    vertex -7.246933262870568 -27.04592313609395 12.266967773437502
    vertex -7.246933262870577 -27.04592313609391 80.0
  endloop
endfacet
facet normal 0.7933533402912367 -0.6087614290087189 -3.035215357894894e-16
  outer loop
    vertex -19.79898987322333 19.79898987322336 10.35595703124999
    vertex -24.248711305964264 13.999999999999995 12.266967773437505
    vertex -24.248711305964296 13.999999999999986 11.266967773437495
  endloop
endfacet
facet normal 0.7933533402912367 -0.6087614290087189 -3.035215357894894e-16
  outer loop
    vertex -24.248711305964264 13.999999999999995 12.266967773437505
    vertex -19.79898987322333 19.79898987322336 10.35595703124999
    vertex -24.24871130596428 13.999999999999996 80.0
  endloop
endfacet
facet normal 0.7933533402912367 -0.6087614290087189 -3.035215357894894e-16
  outer loop
    vertex -24.24871130596428 13.999999999999996 80.0
    vertex -19.79898987322333 19.79898987322336 10.35595703124999
    vertex -19.79898987322333 19.79898987322333 80.0
  endloop
endfacet
facet normal 0.9659258262890684 -0.2588190451025207 -5.103431729248025e-15
  outer loop
    vertex -7.246933262870588 -27.045923136093933 11.266967773437496
    vertex 0.0 0.0 10.400451660156255
    vertex -7.246933262870568 -27.04592313609395 12.266967773437502
  endloop
endfacet
facet normal 0.9659258262890684 -0.2588190451025207 -5.103431729248025e-15
  outer loop
    vertex 0.0 0.0 10.400451660156255
    vertex -7.246933262870588 -27.045923136093933 11.266967773437496
    vertex -2.6505535218595497e-15 0.0 8.533935546875007
  endloop
endfacet
facet normal 0.49999999999999883 0.8660254037844394 -9.486897436730679e-15
  outer loop
    vertex -24.248711305964296 13.999999999999986 11.266967773437495
    vertex 0.0 0.0 10.400451660156255
    vertex -2.6505535218595497e-15 0.0 8.533935546875007
  endloop
endfacet
facet normal 0.49999999999999883 0.8660254037844394 -9.486897436730679e-15
  outer loop
    vertex 0.0 0.0 10.400451660156255
    vertex -24.248711305964296 13.999999999999986 11.266967773437495
    vertex -24.248711305964264 13.999999999999995 12.266967773437505
  endloop
endfacet
facet normal 0.9238795325112863 -0.38268343236509095 3.8678819728881577e-16
  outer loop
    vertex -24.248711305964264 13.999999999999995 12.266967773437505
    vertex -27.0459231360939 7.246933262870578 14.200225830078098
    vertex -27.045923136093933 7.2469332628705585 13.200225830078134
  endloop
endfacet
facet normal 0.9238795325112863 -0.38268343236509095 3.8678819728881577e-16
  outer loop
    vertex -27.0459231360939 7.246933262870578 14.200225830078098
    vertex -24.24871130596428 13.999999999999996 80.0
    vertex -27.04592313609391 7.246933262870575 80.0
  endloop
endfacet
facet normal 0.9238795325112863 -0.38268343236509095 3.8678819728881577e-16
  outer loop
    vertex -24.24871130596428 13.999999999999996 80.0
    vertex -27.0459231360939 7.246933262870578 14.200225830078098
    vertex -24.248711305964264 13.999999999999995 12.266967773437505
  endloop
endfacet
facet normal 0.8660254037844394 -0.49999999999999895 1.845643902751369e-15
  outer loop
    vertex 0.0 0.0 10.400451660156255
    vertex -13.999999999999986 -24.248711305964314 14.200225830078121
    vertex -13.999999999999986 -24.248711305964324 13.200225830078125
  endloop
endfacet
facet normal 0.8660254037844394 -0.49999999999999895 1.845643902751369e-15
  outer loop
    vertex -13.999999999999986 -24.248711305964314 14.200225830078121
    vertex 0.0 0.0 10.400451660156255
    vertex 0.0 1.878475030557534e-30 12.300338745117198
  endloop
endfacet
facet normal 0.2588190451025197 0.9659258262890685 -6.619036214253689e-15
  outer loop
    vertex -27.045923136093933 7.2469332628705585 13.200225830078134
    vertex 0.0 1.878475030557534e-30 12.300338745117198
    vertex 0.0 0.0 10.400451660156255
  endloop
endfacet
facet normal 0.2588190451025197 0.9659258262890685 -6.619036214253689e-15
  outer loop
    vertex 0.0 1.878475030557534e-30 12.300338745117198
    vertex -27.045923136093933 7.2469332628705585 13.200225830078134
    vertex -27.0459231360939 7.246933262870578 14.200225830078098
  endloop
endfacet
facet normal 0.3826834323650896 0.9238795325112868 -1.881610818575599e-15
  outer loop
    vertex -13.999999999999986 -24.248711305964324 13.200225830078125
    vertex -7.246933262870577 -27.04592313609391 80.0
    vertex -7.246933262870568 -27.04592313609395 12.266967773437502
  endloop
endfacet
facet normal 0.3826834323650896 0.9238795325112868 -1.881610818575599e-15
  outer loop
    vertex -7.246933262870577 -27.04592313609391 80.0
    vertex -13.999999999999986 -24.248711305964324 13.200225830078125
    vertex -13.999999999999986 -24.248711305964314 14.200225830078121
  endloop
endfacet
facet normal 0.3826834323650896 0.9238795325112868 -1.881610818575599e-15
  outer loop
    vertex -7.246933262870577 -27.04592313609391 80.0
    vertex -13.999999999999986 -24.248711305964314 14.200225830078121
    vertex -13.999999999999988 -24.248711305964285 80.0
  endloop
endfacet
facet normal 0.9914448613738107 -0.13052619222004996 1.5653673893169992e-15
  outer loop
    vertex -27.0459231360939 7.246933262870578 14.200225830078098
    vertex -27.99999999999999 1.584367973697632e-14 16.150169372558597
    vertex -27.99999999999995 -4.66913195693697e-14 15.150169372558581
  endloop
endfacet
facet normal 0.9914448613738107 -0.13052619222004996 1.5653673893169992e-15
  outer loop
    vertex -27.99999999999999 1.584367973697632e-14 16.150169372558597
    vertex -27.0459231360939 7.246933262870578 14.200225830078098
    vertex -27.04592313609391 7.246933262870575 80.0
  endloop
endfacet
facet normal 0.9914448613738107 -0.13052619222004996 1.5653673893169992e-15
  outer loop
    vertex -27.04592313609391 7.246933262870575 80.0
    vertex -28.0 -9.005486838189166e-15 80.0
    vertex -27.99999999999999 1.584367973697632e-14 16.150169372558597
  endloop
endfacet
facet normal 0.5000000000000001 -0.8660254037844387 -3.561228133087612e-15
  outer loop
    vertex 0.0 0.0 16.168940544128414
    vertex -24.248711305964257 -13.999999999999972 17.112627029418952
    vertex 0.0 -2.8002364998533095e-15 14.225254058837894
  endloop
endfacet
facet normal 0.5000000000000001 -0.8660254037844387 -3.561228133087612e-15
  outer loop
    vertex -24.248711305964257 -13.999999999999972 17.112627029418952
    vertex 0.0 0.0 16.168940544128414
    vertex -24.248711305964267 -14.000000000000053 18.11262702941896
  endloop
endfacet
facet normal 0.9238795325112862 0.38268343236509117 -1.1162911958611168e-15
  outer loop
    vertex -27.045923136093933 -7.246933262870591 18.11262702941896
    vertex -24.248711305964274 -14.000000000000016 80.0
    vertex -24.248711305964267 -14.000000000000053 18.11262702941896
  endloop
endfacet
facet normal 0.9238795325112862 0.38268343236509117 -1.1162911958611168e-15
  outer loop
    vertex -24.248711305964274 -14.000000000000016 80.0
    vertex -27.045923136093933 -7.246933262870591 18.11262702941896
    vertex -27.04592313609391 -7.246933262870592 80.0
  endloop
endfacet
facet normal 0.9914448613738107 0.13052619222005013 3.1351483128144016e-16
  outer loop
    vertex -27.99999999999999 1.584367973697632e-14 16.150169372558597
    vertex -27.045923136093933 -7.246933262870591 18.11262702941896
    vertex -27.0459231360939 -7.2469332628706065 17.11262702941894
  endloop
endfacet
facet normal 0.9914448613738107 0.13052619222005013 3.1351483128144016e-16
  outer loop
    vertex -27.045923136093933 -7.246933262870591 18.11262702941896
    vertex -27.99999999999999 1.584367973697632e-14 16.150169372558597
    vertex -28.0 -9.005486838189166e-15 80.0
  endloop
endfacet
facet normal 0.9914448613738107 0.13052619222005013 3.1351483128144016e-16
  outer loop
    vertex -28.0 -9.005486838189166e-15 80.0
    vertex -27.04592313609391 -7.246933262870592 80.0
    vertex -27.045923136093933 -7.246933262870591 18.11262702941896
  endloop
endfacet
facet normal 0.7933533402912337 0.6087614290087227 1.759175219969374e-15
  outer loop
    vertex -24.248711305964257 -13.999999999999972 17.112627029418952
    vertex -19.798989873223316 -19.798989873223345 80.0
    vertex -19.798989873223263 -19.79898987322336 16.150169372558597
  endloop
endfacet
facet normal 0.7933533402912337 0.6087614290087227 1.759175219969374e-15
  outer loop
    vertex -19.798989873223316 -19.798989873223345 80.0
    vertex -24.248711305964257 -13.999999999999972 17.112627029418952
    vertex -24.248711305964267 -14.000000000000053 18.11262702941896
  endloop
endfacet
facet normal 0.7933533402912337 0.6087614290087227 1.759175219969374e-15
  outer loop
    vertex -24.248711305964274 -14.000000000000016 80.0
    vertex -19.798989873223316 -19.798989873223345 80.0
    vertex -24.248711305964267 -14.000000000000053 18.11262702941896
  endloop
endfacet
facet normal -1.5363500389522643e-15 1.0 -1.2144771588553557e-14
  outer loop
    vertex -27.99999999999995 -4.66913195693697e-14 15.150169372558581
    vertex 0.0 -2.8002364998533095e-15 14.225254058837894
    vertex 0.0 1.878475030557534e-30 12.300338745117198
  endloop
endfacet
facet normal -1.5363500389522643e-15 1.0 -1.2144771588553557e-14
  outer loop
    vertex 0.0 -2.8002364998533095e-15 14.225254058837894
    vertex -27.99999999999995 -4.66913195693697e-14 15.150169372558581
    vertex -27.99999999999999 1.584367973697632e-14 16.150169372558597
  endloop
endfacet
facet normal 0.7071067811865474 -0.7071067811865477 -1.77156384592045e-14
  outer loop
    vertex 0.0 -2.8002364998533095e-15 14.225254058837894
    vertex -19.79898987322337 -19.798989873223366 15.150169372558596
    vertex 0.0 1.878475030557534e-30 12.300338745117198
  endloop
endfacet
facet normal 0.7071067811865474 -0.7071067811865477 -1.77156384592045e-14
  outer loop
    vertex -19.79898987322337 -19.798989873223366 15.150169372558596
    vertex 0.0 -2.8002364998533095e-15 14.225254058837894
    vertex -19.798989873223263 -19.79898987322336 16.150169372558597
  endloop
endfacet
facet normal 0.6087614290087202 0.7933533402912355 -1.3210412758556504e-15
  outer loop
    vertex -19.79898987322337 -19.798989873223366 15.150169372558596
    vertex -13.999999999999988 -24.248711305964285 80.0
    vertex -13.999999999999986 -24.248711305964314 14.200225830078121
  endloop
endfacet
facet normal 0.6087614290087202 0.7933533402912355 -1.3210412758556504e-15
  outer loop
    vertex -13.999999999999988 -24.248711305964285 80.0
    vertex -19.79898987322337 -19.798989873223366 15.150169372558596
    vertex -19.798989873223263 -19.79898987322336 16.150169372558597
  endloop
endfacet
facet normal 0.6087614290087202 0.7933533402912355 -1.3210412758556504e-15
  outer loop
    vertex -13.999999999999988 -24.248711305964285 80.0
    vertex -19.798989873223263 -19.79898987322336 16.150169372558597
    vertex -19.798989873223316 -19.798989873223345 80.0
  endloop
endfacet
facet normal -0.25881904510252174 0.9659258262890682 -5.587592141112068e-15
  outer loop
    vertex -27.0459231360939 -7.2469332628706065 17.11262702941894
    vertex 0.0 0.0 16.168940544128414
    vertex 0.0 -2.8002364998533095e-15 14.225254058837894
  endloop
endfacet
facet normal -0.25881904510252174 0.9659258262890682 -5.587592141112068e-15
  outer loop
    vertex 0.0 0.0 16.168940544128414
    vertex -27.0459231360939 -7.2469332628706065 17.11262702941894
    vertex -27.045923136093933 -7.246933262870591 18.11262702941896
  endloop
endfacet
facet normal -0.0010500144039140042 0.1989284990390268 0.980013443652602
  outer loop
    vertex 27.045923136094057 -7.246933262870712 0.5000000000000208
    vertex 8.305485004585156 3.191554939904448e-14 -0.991101266066515
    vertex 7.727406610312554 -2.070552360820136 -0.5714285714285706
  endloop
endfacet
facet normal -0.0010500144039140042 0.1989284990390268 0.980013443652602
  outer loop
    vertex 8.305485004585156 3.191554939904448e-14 -0.991101266066515
    vertex 27.045923136094057 -7.246933262870712 0.5000000000000208
    vertex 28.000000000000135 1.0759580959810368e-13 -0.9699999999999995
  endloop
endfacet
facet normal -1.71835106129776e-17 4.148466437103467e-17 -1.0
  outer loop
    vertex 25.980762113533164 14.999999999999998 -0.9999999999999999
    vertex 27.04592313609394 7.246933262870616 -1.0000000000000002
    vertex 24.248711305964314 14.000000000000044 -0.9999999999999996
  endloop
endfacet
facet normal -1.71835106129776e-17 4.148466437103467e-17 -1.0
  outer loop
    vertex 27.04592313609394 7.246933262870616 -1.0000000000000002
    vertex 25.980762113533164 14.999999999999998 -0.9999999999999999
    vertex 28.97777478867205 7.764571353075622 -0.9999999999999999
  endloop
endfacet
facet normal 4.4351176536960295e-06 1.837085882883318e-06 -0.9999999999884774
  outer loop
    vertex 7.764571353075629 28.97777478867205 -0.9999999999999999
    vertex 5.872864767784484 5.872864767784455 -0.991101266066515
    vertex 1.83697019872103e-15 30.0 -0.9999999999999999
  endloop
endfacet
facet normal 4.4351176536960295e-06 1.837085882883318e-06 -0.9999999999884774
  outer loop
    vertex 5.872864767784484 5.872864767784455 -0.991101266066515
    vertex 7.764571353075629 28.97777478867205 -0.9999999999999999
    vertex 19.79898987322336 19.7989898732234 -0.999999999999999
  endloop
endfacet
facet normal 4.4351176536960295e-06 1.837085882883318e-06 -0.9999999999884774
  outer loop
    vertex 19.79898987322336 19.7989898732234 -0.999999999999999
    vertex 7.764571353075629 28.97777478867205 -0.9999999999999999
    vertex 15.000000000000004 25.980762113533157 -0.9999999999999999
  endloop
endfacet
facet normal 4.4351176536960295e-06 1.837085882883318e-06 -0.9999999999884774
  outer loop
    vertex 19.79898987322336 19.7989898732234 -0.999999999999999
    vertex 15.000000000000004 25.980762113533157 -0.9999999999999999
    vertex 21.213203435596427 21.213203435596427 -0.9999999999999999
  endloop
endfacet
facet normal 4.4351176536960295e-06 1.837085882883318e-06 -0.9999999999884774
  outer loop
    vertex 19.79898987322336 19.7989898732234 -0.999999999999999
    vertex 21.213203435596427 21.213203435596427 -0.9999999999999999
    vertex 24.248711305964314 14.000000000000044 -0.9999999999999996
  endloop
endfacet
facet normal 4.4351176536960295e-06 1.837085882883318e-06 -0.9999999999884774
  outer loop
    vertex 24.248711305964314 14.000000000000044 -0.9999999999999996
    vertex 21.213203435596427 21.213203435596427 -0.9999999999999999
    vertex 25.980762113533164 14.999999999999998 -0.9999999999999999
  endloop
endfacet
facet normal 4.4351176536960295e-06 1.837085882883318e-06 -0.9999999999884774
  outer loop
    vertex 28.97777478867205 7.764571353075622 -0.9999999999999999
    vertex 28.00000000000003 2.3749809657720535e-14 -1.000000000000001
    vertex 27.04592313609394 7.246933262870616 -1.0000000000000002
  endloop
endfacet
facet normal 4.4351176536960295e-06 1.837085882883318e-06 -0.9999999999884774
  outer loop
    vertex 28.00000000000003 2.3749809657720535e-14 -1.000000000000001
    vertex 28.97777478867205 7.764571353075622 -0.9999999999999999
    vertex 28.977774788672043 -7.764571353075648 -0.9999999999999999
  endloop
endfacet
facet normal 4.4351176536960295e-06 1.837085882883318e-06 -0.9999999999884774
  outer loop
    vertex 28.977774788672043 -7.764571353075648 -0.9999999999999999
    vertex 28.97777478867205 7.764571353075622 -0.9999999999999999
    vertex 30.0 0.0 -0.9999999999999999
  endloop
endfacet
facet normal 4.4351176536960295e-06 1.837085882883318e-06 -0.9999999999884774
  outer loop
    vertex -28.97777478867205 7.764571353075631 -0.9999999999999999
    vertex -28.977774788672054 -7.7645713530756115 -0.9999999999999999
    vertex -30.0 3.67394039744206e-15 -0.9999999999999999
  endloop
endfacet
facet normal 4.4351176536960295e-06 1.837085882883318e-06 -0.9999999999884774
  outer loop
    vertex -28.977774788672054 -7.7645713530756115 -0.9999999999999999
    vertex -28.97777478867205 7.764571353075631 -0.9999999999999999
    vertex -25.980762113533164 -14.999999999999993 -0.9999999999999999
  endloop
endfacet
facet normal 4.4351176536960295e-06 1.837085882883318e-06 -0.9999999999884774
  outer loop
    vertex -25.980762113533164 -14.999999999999993 -0.9999999999999999
    vertex -28.97777478867205 7.764571353075631 -0.9999999999999999
    vertex -25.980762113533157 15.000000000000012 -0.9999999999999999
  endloop
endfacet
facet normal 4.4351176536960295e-06 1.837085882883318e-06 -0.9999999999884774
  outer loop
    vertex -25.980762113533164 -14.999999999999993 -0.9999999999999999
    vertex -25.980762113533157 15.000000000000012 -0.9999999999999999
    vertex -21.21320343559644 -21.213203435596412 -0.9999999999999999
  endloop
endfacet
facet normal 4.4351176536960295e-06 1.837085882883318e-06 -0.9999999999884774
  outer loop
    vertex -21.21320343559644 -21.213203435596412 -0.9999999999999999
    vertex -25.980762113533157 15.000000000000012 -0.9999999999999999
    vertex -21.213203435596427 21.213203435596427 -0.9999999999999999
  endloop
endfacet
facet normal 4.4351176536960295e-06 1.837085882883318e-06 -0.9999999999884774
  outer loop
    vertex -21.21320343559644 -21.213203435596412 -0.9999999999999999
    vertex -21.213203435596427 21.213203435596427 -0.9999999999999999
    vertex -15.000000000000014 -25.980762113533157 -0.9999999999999999
  endloop
endfacet
facet normal 4.4351176536960295e-06 1.837085882883318e-06 -0.9999999999884774
  outer loop
    vertex -15.000000000000014 -25.980762113533157 -0.9999999999999999
    vertex -21.213203435596427 21.213203435596427 -0.9999999999999999
    vertex -14.999999999999995 25.980762113533164 -0.9999999999999999
  endloop
endfacet
facet normal 4.4351176536960295e-06 1.837085882883318e-06 -0.9999999999884774
  outer loop
    vertex -15.000000000000014 -25.980762113533157 -0.9999999999999999
    vertex -14.999999999999995 25.980762113533164 -0.9999999999999999
    vertex -7.764571353075646 -28.977774788672043 -0.9999999999999999
  endloop
endfacet
facet normal 4.4351176536960295e-06 1.837085882883318e-06 -0.9999999999884774
  outer loop
    vertex -7.764571353075646 -28.977774788672043 -0.9999999999999999
    vertex -14.999999999999995 25.980762113533164 -0.9999999999999999
    vertex -7.7645713530756195 28.97777478867205 -0.9999999999999999
  endloop
endfacet
facet normal 4.4351176536960295e-06 1.837085882883318e-06 -0.9999999999884774
  outer loop
    vertex -7.764571353075646 -28.977774788672043 -0.9999999999999999
    vertex -7.7645713530756195 28.97777478867205 -0.9999999999999999
    vertex -5.5109105961630896e-15 -30.0 -0.9999999999999999
  endloop
endfacet
facet normal 4.4351176536960295e-06 1.837085882883318e-06 -0.9999999999884774
  outer loop
    vertex -5.5109105961630896e-15 -30.0 -0.9999999999999999
    vertex -7.7645713530756195 28.97777478867205 -0.9999999999999999
    vertex 1.83697019872103e-15 30.0 -0.9999999999999999
  endloop
endfacet
facet normal 4.4351176536960295e-06 1.837085882883318e-06 -0.9999999999884774
  outer loop
    vertex -5.5109105961630896e-15 -30.0 -0.9999999999999999
    vertex 1.83697019872103e-15 30.0 -0.9999999999999999
    vertex 7.76457135307561 -28.977774788672054 -0.9999999999999999
  endloop
endfacet
facet normal 4.4351176536960295e-06 1.837085882883318e-06 -0.9999999999884774
  outer loop
    vertex 7.76457135307561 -28.977774788672054 -0.9999999999999999
    vertex 1.83697019872103e-15 30.0 -0.9999999999999999
    vertex 5.872864767784484 5.872864767784455 -0.991101266066515
  endloop
endfacet
facet normal 4.4351176536960295e-06 1.837085882883318e-06 -0.9999999999884774
  outer loop
    vertex 7.76457135307561 -28.977774788672054 -0.9999999999999999
    vertex 5.872864767784484 5.872864767784455 -0.991101266066515
    vertex 8.305485004585156 3.191554939904448e-14 -0.991101266066515
  endloop
endfacet
facet normal 4.4351176536960295e-06 1.837085882883318e-06 -0.9999999999884774
  outer loop
    vertex 7.76457135307561 -28.977774788672054 -0.9999999999999999
    vertex 8.305485004585156 3.191554939904448e-14 -0.991101266066515
    vertex 14.99999999999998 -25.980762113533174 -0.9999999999999999
  endloop
endfacet
facet normal 4.4351176536960295e-06 1.837085882883318e-06 -0.9999999999884774
  outer loop
    vertex 14.99999999999998 -25.980762113533174 -0.9999999999999999
    vertex 8.305485004585156 3.191554939904448e-14 -0.991101266066515
    vertex 28.00000000000003 2.3749809657720535e-14 -1.000000000000001
  endloop
endfacet
facet normal 4.4351176536960295e-06 1.837085882883318e-06 -0.9999999999884774
  outer loop
    vertex 14.99999999999998 -25.980762113533174 -0.9999999999999999
    vertex 28.00000000000003 2.3749809657720535e-14 -1.000000000000001
    vertex 21.213203435596423 -21.21320343559643 -0.9999999999999999
  endloop
endfacet
facet normal 4.4351176536960295e-06 1.837085882883318e-06 -0.9999999999884774
  outer loop
    vertex 21.213203435596423 -21.21320343559643 -0.9999999999999999
    vertex 28.00000000000003 2.3749809657720535e-14 -1.000000000000001
    vertex 25.980762113533153 -15.000000000000014 -0.9999999999999999
  endloop
endfacet
facet normal 4.4351176536960295e-06 1.837085882883318e-06 -0.9999999999884774
  outer loop
    vertex 25.980762113533153 -15.000000000000014 -0.9999999999999999
    vertex 28.00000000000003 2.3749809657720535e-14 -1.000000000000001
    vertex 28.977774788672043 -7.764571353075648 -0.9999999999999999
  endloop
endfacet
facet normal 0.49091554656065683 0.8712071660317376 -3.593410297397958e-15
  outer loop
    vertex 4.000000000000005 6.928203230275508 0.6071428571428575
    vertex 5.872864767784484 5.872864767784455 -0.991101266066515
    vertex 3.9999999999999933 6.928203230275509 -0.5714285714285706
  endloop
endfacet
facet normal 0.7109302022495076 0.2944769316724389 0.6386404185786082
  outer loop
    vertex 8.305485004585156 3.191554939904448e-14 -0.991101266066515
    vertex 5.86370330515628 2.428825434727686 0.6071428571428519
    vertex 7.727406610312554 -2.070552360820136 0.6071428571428461
  endloop
endfacet
facet normal 0.7109302022495076 0.2944769316724389 0.6386404185786082
  outer loop
    vertex 5.86370330515628 2.428825434727686 0.6071428571428519
    vertex 8.305485004585156 3.191554939904448e-14 -0.991101266066515
    vertex 5.872864767784484 5.872864767784455 -0.991101266066515
  endloop
endfacet
facet normal 0.7109302022495076 0.2944769316724389 0.6386404185786082
  outer loop
    vertex 5.86370330515628 2.428825434727686 0.6071428571428519
    vertex 5.872864767784484 5.872864767784455 -0.991101266066515
    vertex 4.000000000000005 6.928203230275508 0.6071428571428575
  endloop
endfacet
facet normal -0.8634330406223913 0.5044634618697096 -8.155038858194342e-15
  outer loop
    vertex 7.727406610312554 -2.070552360820136 0.6071428571428461
    vertex 6.682874683742908 -3.858359497619524 0.7667445755740454
    vertex 6.682874683742908 -3.8583594976195026 2.083670841273435
  endloop
endfacet
facet normal 0.0571587472262542 -0.08428175657454053 0.994801217894427
  outer loop
    vertex 4.000000000000005 6.928203230275508 0.6071428571428575
    vertex 7.246933262870557 27.04592313609396 2.1250000000000036
    vertex 1.9972338416722384 7.4537781717168095 0.7667445755740435
  endloop
endfacet
facet normal 0.0571587472262542 -0.08428175657454053 0.994801217894427
  outer loop
    vertex 7.246933262870557 27.04592313609396 2.1250000000000036
    vertex 4.000000000000005 6.928203230275508 0.6071428571428575
    vertex 14.00000000000003 24.248711305964292 1.4999999999999982
  endloop
endfacet
facet normal 0.9659258262890688 -0.25881904510251913 -1.9935211575344325e-14
  outer loop
    vertex 1.9972338416722384 7.4537781717168095 0.7667445755740435
    vertex 7.246933262870618 27.045923136094036 3.125
    vertex 1.9972338416722384 7.453778171716764 2.0836708412734297
  endloop
endfacet
facet normal 0.9659258262890688 -0.25881904510251913 -1.9935211575344325e-14
  outer loop
    vertex 7.246933262870618 27.045923136094036 3.125
    vertex 1.9972338416722384 7.4537781717168095 0.7667445755740435
    vertex 7.246933262870557 27.04592313609396 2.1250000000000036
  endloop
endfacet
facet normal 0.08843080409376079 -0.07648078776293446 0.9931418237041939
  outer loop
    vertex -1.4248534367979138e-15 7.440163901146089 2.260459050423082
    vertex 7.246933262870618 27.045923136094036 3.125
    vertex -4.0916274722665365e-15 28.000000000000117 3.8437500000000084
  endloop
endfacet
facet normal 0.08843080409376079 -0.07648078776293446 0.9931418237041939
  outer loop
    vertex 7.246933262870618 27.045923136094036 3.125
    vertex -1.4248534367979138e-15 7.440163901146089 2.260459050423082
    vertex 1.9972338416722384 7.453778171716764 2.0836708412734297
  endloop
endfacet
facet normal 1.0 2.475685002532236e-16 -1.1663246128066799e-14
  outer loop
    vertex -4.0916274722665365e-15 28.000000000000117 3.8437500000000084
    vertex 1.955369148991009e-15 7.440163901146089 3.6849645948748626
    vertex -1.4248534367979138e-15 7.440163901146089 2.260459050423082
  endloop
endfacet
facet normal 1.0 2.475685002532236e-16 -1.1663246128066799e-14
  outer loop
    vertex 1.955369148991009e-15 7.440163901146089 3.6849645948748626
    vertex -4.0916274722665365e-15 28.000000000000117 3.8437500000000084
    vertex 2.6423719034411213e-14 28.000000000000107 4.8437499999999964
  endloop
endfacet
facet normal 0.11534311818502696 -0.05589672217318949 0.9917517439045157
  outer loop
    vertex -1.8498145042109584 6.928203230275508 3.8712475540244826
    vertex 2.6423719034411213e-14 28.000000000000107 4.8437499999999964
    vertex -7.246933262870598 27.04592313609403 5.6328125000000036
  endloop
endfacet
facet normal 0.11534311818502696 -0.05589672217318949 0.9917517439045157
  outer loop
    vertex 2.6423719034411213e-14 28.000000000000107 4.8437499999999964
    vertex -1.8498145042109584 6.928203230275508 3.8712475540244826
    vertex 1.955369148991009e-15 7.440163901146089 3.6849645948748626
  endloop
endfacet
facet normal 0.9658931948076899 0.2589365954347663 0.0014750487606908893
  outer loop
    vertex -1.8498145042109584 6.928203230275508 3.8712475540244826
    vertex -7.246933262870547 27.045923136093997 6.63281250000001
    vertex -1.8294884321105338 6.840044538487289 5.374956444539646
  endloop
endfacet
facet normal 0.9658931948076899 0.2589365954347663 0.0014750487606908893
  outer loop
    vertex -7.246933262870547 27.045923136093997 6.63281250000001
    vertex -1.8498145042109584 6.928203230275508 3.8712475540244826
    vertex -7.246933262870598 27.04592313609403 5.6328125000000036
  endloop
endfacet
facet normal 0.2606369788917722 -0.9635697122541683 -0.06001478868237031
  outer loop
    vertex -1.8294884321105338 6.840044538487289 5.374956444539646
    vertex -1.8498145042109584 6.928203230275508 3.8712475540244826
    vertex 1.955369148991009e-15 7.440163901146089 3.6849645948748626
  endloop
endfacet
facet normal 0.00681640476967391 -0.9999767680431461 -1.735398295088681e-17
  outer loop
    vertex 1.955369148991009e-15 7.440163901146089 3.6849645948748626
    vertex -1.4248534367979138e-15 7.440163901146089 2.260459050423082
    vertex 1.9972338416722384 7.453778171716764 2.0836708412734297
  endloop
endfacet
facet normal -0.253829823375703 -0.9672488928735249 -3.3200071355935624e-14
  outer loop
    vertex 1.9972338416722384 7.453778171716764 2.0836708412734297
    vertex 1.9972338416722384 7.4537781717168095 0.7667445755740435
    vertex 4.000000000000005 6.928203230275508 0.6071428571428575
  endloop
endfacet
facet normal -0.7022704276763656 0.7119102797482662 -1.1012251248644908e-14
  outer loop
    vertex 5.260990347639754 -5.26099034763976 3.6849645948748675
    vertex 6.682874683742908 -3.8583594976195026 2.083670841273435
    vertex 5.260990347639754 -5.2609903476397815 2.2604590504230875
  endloop
endfacet
facet normal -0.4928771968957046 0.8700988844839608 -2.1102510246676378e-14
  outer loop
    vertex 3.5854227029984664 -6.21013428820428 5.380389839562593
    vertex 5.260990347639754 -5.26099034763976 3.6849645948748675
    vertex 3.5854227029984664 -6.210134288204317 3.8718655574824496
  endloop
endfacet
facet normal 0.5649895607910744 0.10014017850801778 0.8189986207836321
  outer loop
    vertex 2.93185165257814 1.214412717363843 2.778180803571426
    vertex -1.8294884321105338 6.840044538487289 5.374956444539646
    vertex 0.0 0.0 4.949218750000001
  endloop
endfacet
facet normal 0.4704320332643273 0.3284691503232606 0.8190248588197467
  outer loop
    vertex 3.5854227029984664 -6.21013428820428 5.380389839562593
    vertex 2.93185165257814 1.214412717363843 2.778180803571426
    vertex 0.0 0.0 4.949218750000001
  endloop
endfacet
facet normal -0.5813973523660256 -0.31421864637087893 -0.750495676826075
  outer loop
    vertex 5.260990347639754 -5.26099034763976 3.6849645948748675
    vertex 3.5854227029984664 -6.21013428820428 5.380389839562593
    vertex 2.93185165257814 1.214412717363843 2.778180803571426
  endloop
endfacet
facet normal -0.6323557925134359 -0.1883444241669217 -0.7514336494727496
  outer loop
    vertex 2.93185165257814 1.214412717363843 2.778180803571426
    vertex -1.8294884321105338 6.840044538487289 5.374956444539646
    vertex 1.955369148991009e-15 7.440163901146089 3.6849645948748626
  endloop
endfacet
facet normal -0.5787526063087943 -0.28542478770458135 -0.7639228437836981
  outer loop
    vertex 6.682874683742908 -3.8583594976195026 2.083670841273435
    vertex 5.260990347639754 -5.26099034763976 3.6849645948748675
    vertex 4.3977774788672095 1.8216190760457647 1.692661830357139
  endloop
endfacet
facet normal -0.4886047142462352 -0.29093505441367606 -0.8225704999145461
  outer loop
    vertex 5.260990347639754 -5.26099034763976 3.6849645948748675
    vertex 2.93185165257814 1.214412717363843 2.778180803571426
    vertex 4.3977774788672095 1.8216190760457647 1.692661830357139
  endloop
endfacet
facet normal -0.6110656954549806 -0.20741408964570054 -0.7639228437836942
  outer loop
    vertex 4.3977774788672095 1.8216190760457647 1.692661830357139
    vertex 1.955369148991009e-15 7.440163901146089 3.6849645948748626
    vertex 1.9972338416722384 7.453778171716764 2.0836708412734297
  endloop
endfacet
facet normal -0.5512178566240153 -0.13977355690244037 -0.8225704999145463
  outer loop
    vertex 4.3977774788672095 1.8216190760457647 1.692661830357139
    vertex 2.93185165257814 1.214412717363843 2.778180803571426
    vertex 1.955369148991009e-15 7.440163901146089 3.6849645948748626
  endloop
endfacet
facet normal -0.6162561357531796 -0.2552616493246023 -0.7450301104859068
  outer loop
    vertex 5.86370330515628 2.428825434727686 0.6071428571428519
    vertex 1.9972338416722384 7.453778171716764 2.0836708412734297
    vertex 4.000000000000005 6.928203230275508 0.6071428571428575
  endloop
endfacet
facet normal -0.5390332869162373 -0.17251179032317804 -0.8244287706016631
  outer loop
    vertex 5.86370330515628 2.428825434727686 0.6071428571428519
    vertex 4.3977774788672095 1.8216190760457647 1.692661830357139
    vertex 1.9972338416722384 7.453778171716764 2.0836708412734297
  endloop
endfacet
facet normal -0.616256135753183 -0.2552616493246037 -0.7450301104859034
  outer loop
    vertex 7.727406610312554 -2.070552360820136 0.6071428571428461
    vertex 6.682874683742908 -3.8583594976195026 2.083670841273435
    vertex 5.86370330515628 2.428825434727686 0.6071428571428519
  endloop
endfacet
facet normal -0.5031383492358955 -0.25916983569159574 -0.8244287706016629
  outer loop
    vertex 6.682874683742908 -3.8583594976195026 2.083670841273435
    vertex 4.3977774788672095 1.8216190760457647 1.692661830357139
    vertex 5.86370330515628 2.428825434727686 0.6071428571428519
  endloop
endfacet
facet normal 0.9659258262890685 0.2588190451025199 -5.571623989008727e-15
  outer loop
    vertex 7.246933262870547 -27.045923136093894 7.474609375000004
    vertex 0.0 0.0 6.711914062500002
    vertex 7.24693326287059 -27.04592313609398 8.474609374999998
  endloop
endfacet
facet normal 0.9659258262890685 0.2588190451025199 -5.571623989008727e-15
  outer loop
    vertex 0.0 0.0 6.711914062500002
    vertex 7.246933262870547 -27.045923136093894 7.474609375000004
    vertex 0.0 0.0 4.949218750000001
  endloop
endfacet
facet normal 0.8660254037844385 0.5000000000000003 -1.6571570862586603e-14
  outer loop
    vertex -14.00000000000003 24.24871130596433 7.47460937500002
    vertex 0.0 0.0 6.711914062500002
    vertex 0.0 0.0 4.949218750000001
  endloop
endfacet
facet normal 0.8660254037844385 0.5000000000000003 -1.6571570862586603e-14
  outer loop
    vertex 0.0 0.0 6.711914062500002
    vertex -14.00000000000003 24.24871130596433 7.47460937500002
    vertex -13.999999999999947 24.248711305964296 8.474609375000004
  endloop
endfacet
facet normal 0.2588190451025256 0.9659258262890671 -8.213512780480128e-14
  outer loop
    vertex 7.727406610312554 -2.070552360820136 0.6071428571428461
    vertex 27.045923136094057 -7.246933262870712 0.5000000000000208
    vertex 7.727406610312554 -2.070552360820136 -0.5714285714285706
  endloop
endfacet
facet normal 0.2588190451025256 0.9659258262890671 -8.213512780480128e-14
  outer loop
    vertex 27.045923136094057 -7.246933262870712 0.5000000000000208
    vertex 7.727406610312554 -2.070552360820136 0.6071428571428461
    vertex 27.045923136093844 -7.246933262870451 1.499999999999953
  endloop
endfacet
facet normal 0.9631662068821483 -0.2689067829569477 -0.0
  outer loop
    vertex 8.305485004585156 3.191554939904448e-14 -0.991101266066515
    vertex 7.727406610312554 -2.070552360820136 0.6071428571428461
    vertex 7.727406610312554 -2.070552360820136 -0.5714285714285706
  endloop
endfacet
endsolid TopElement
